NormStroke_pseudoclosed.ufo
<glyph name="exclam" format="2">
  <advance width="240"/>
  <unicode hex="0021"/>
  <outline>
    <contour>
      <point x="120" y="40" type="move"/>
      <point x="120" y="80" type="line"/>
    </contour>
    <contour>
      <point x="120" y="280" type="move"/>
      <point x="120" y="760" type="line"/>
    </contour>
  </outline>
</glyph>
<glyph name="numbersign" format="2">
  <advance width="720"/>
  <unicode hex="0023"/>
  <outline>
    <contour>
      <point x="240" y="40" type="move"/>
      <point x="240" y="760" type="line"/>
    </contour>
    <contour>
      <point x="480" y="40" type="move"/>
      <point x="480" y="760" type="line"/>
    </contour>
    <contour>
      <point x="120" y="520" type="move"/>
      <point x="600" y="520" type="line"/>
    </contour>
    <contour>
      <point x="120" y="280" type="move"/>
      <point x="600" y="280" type="line"/>
    </contour>
  </outline>
</glyph>
<glyph name="dollar" format="2">
  <advance width="560"/>
  <unicode hex="0024"/>
  <outline>
    <contour>
      <point x="440" y="640" type="move" smooth="yes"/>
      <point x="378.513" y="665.619"/>
      <point x="310.722" y="680"/>
      <point x="240" y="680" type="curve" smooth="yes"/>
      <point x="173.77" y="680"/>
      <point x="120" y="626.23"/>
      <point x="120" y="560" type="curve" smooth="yes"/>
      <point x="120" y="515.028"/>
      <point x="144.664" y="475.877"/>
      <point x="181.315" y="455.329" type="curve" smooth="yes"/>
      <point x="181.443" y="455.253"/>
      <point x="378.685" y="344.671"/>
      <point x="378.685" y="344.671" type="curve" smooth="yes"/>
      <point x="415.336" y="324.123"/>
      <point x="440.128" y="284.896"/>
      <point x="440.128" y="239.924" type="curve" smooth="yes"/>
      <point x="440.128" y="173.694"/>
      <point x="386.23" y="120"/>
      <point x="320" y="120" type="curve" smooth="yes"/>
      <point x="249.312" y="120.108"/>
      <point x="181.526" y="134.475"/>
      <point x="120" y="160" type="curve" smooth="yes"/>
    </contour>
    <contour>
      <point x="280" y="40" type="move"/>
      <point x="280" y="760" type="line"/>
    </contour>
  </outline>
</glyph>
<glyph name="percent" format="2">
  <advance width="880"/>
  <unicode hex="0025"/>
  <outline>
    <contour>
      <point x="120" y="40" type="move"/>
      <point x="760" y="760" type="line"/>
    </contour>
    <contour>
      <point x="120" y="640" type="move" smooth="yes"/>
      <point x="120" y="706.23"/>
      <point x="173.77" y="760"/>
      <point x="240" y="760" type="curve" smooth="yes"/>
      <point x="306.23" y="760"/>
      <point x="360" y="706.23"/>
      <point x="360" y="640" type="curve"/>
      <point x="354.409" y="578.947"/>
      <point x="303.005" y="531.062"/>
      <point x="240.504" y="531.062" type="curve" smooth="yes"/>
      <point x="178.004" y="531.062"/>
      <point x="126.591" y="578.947"/>
      <point x="121" y="640" type="curve" smooth="yes"/>
    </contour>
    <contour>
      <point x="520" y="160" type="move" smooth="yes"/>
      <point x="520" y="226.23"/>
      <point x="573.77" y="280"/>
      <point x="640" y="280" type="curve" smooth="yes"/>
      <point x="706.23" y="280"/>
      <point x="760" y="226.23"/>
      <point x="760" y="160" type="curve"/>
      <point x="754.409" y="98.9472"/>
      <point x="703.005" y="51.0619"/>
      <point x="640.504" y="51.0619" type="curve" smooth="yes"/>
      <point x="578.004" y="51.0619"/>
      <point x="526.591" y="98.9472"/>
      <point x="521" y="160" type="curve" smooth="yes"/>
    </contour>
  </outline>
</glyph>
<glyph name="ampersand" format="2">
  <advance width="720"/>
  <unicode hex="0026"/>
  <outline>
    <contour>
      <point x="520" y="40" type="move"/>
      <point x="178.796" y="575.519" type="line" smooth="yes"/>
      <point x="166.944" y="594.121"/>
      <point x="160.075" y="616.202"/>
      <point x="160.075" y="639.874" type="curve" smooth="yes"/>
      <point x="160.075" y="706.104"/>
      <point x="213.845" y="759.874"/>
      <point x="280.075" y="759.874" type="curve" smooth="yes"/>
      <point x="346.304" y="759.874"/>
      <point x="400.075" y="706.104"/>
      <point x="400.075" y="639.874" type="curve" smooth="yes"/>
      <point x="400.075" y="614.588"/>
      <point x="392.094" y="591.128"/>
      <point x="378.718" y="571.774" type="curve"/>
      <point x="378.86" y="571.764"/>
      <point x="141.282" y="228.226"/>
      <point x="141.282" y="228.226" type="curve" smooth="yes"/>
      <point x="127.906" y="208.872"/>
      <point x="120.068" y="185.402"/>
      <point x="120.068" y="160.116" type="curve" smooth="yes"/>
      <point x="120.068" y="93.8865"/>
      <point x="173.838" y="40.1163"/>
      <point x="240.068" y="40.1163" type="curve" smooth="yes"/>
      <point x="267.028" y="40.1163"/>
      <point x="291.956" y="48.9669"/>
      <point x="312" y="64" type="curve" smooth="yes"/>
      <point x="311.967" y="64.0592"/>
      <point x="600" y="280"/>
      <point x="600" y="280" type="curve" smooth="yes"/>
    </contour>
  </outline>
</glyph>
<glyph name="quotesingle" format="2">
  <advance width="280"/>
  <unicode hex="0027"/>
  <outline>
    <contour>
      <point x="120" y="600" type="move"/>
      <point x="160" y="760" type="line"/>
    </contour>
  </outline>
</glyph>
<glyph name="hyphen" format="2">
  <advance width="560"/>
  <unicode hex="002D"/>
  <outline>
    <contour>
      <point x="120" y="280" type="move"/>
      <point x="440" y="280" type="line"/>
    </contour>
  </outline>
</glyph>
<glyph name="period" format="2">
  <advance width="240"/>
  <unicode hex="002E"/>
  <outline>
    <contour>
      <point x="120" y="40" type="move"/>
      <point x="120" y="80" type="line"/>
    </contour>
  </outline>
</glyph>
<glyph name="zero" format="2">
  <advance width="560"/>
  <unicode hex="0030"/>
  <outline>
    <contour>
      <point x="190.112" y="96.1798" type="move" smooth="yes"/>
      <point x="145.456" y="187.783"/>
      <point x="120.393" y="290.662"/>
      <point x="120.393" y="399.349" type="curve" smooth="yes"/>
      <point x="120.393" y="508.035"/>
      <point x="145.456" y="612.217"/>
      <point x="190.112" y="703.82" type="curve" smooth="yes"/>
      <point x="206.348" y="737.124"/>
      <point x="240.541" y="760.094"/>
      <point x="280.057" y="760.094" type="curve" smooth="yes"/>
      <point x="319.572" y="760.094"/>
      <point x="353.652" y="737.124"/>
      <point x="369.888" y="703.82" type="curve" smooth="yes"/>
      <point x="414.544" y="612.217"/>
      <point x="439.607" y="509.338"/>
      <point x="439.607" y="400.651" type="curve" smooth="yes"/>
      <point x="439.607" y="291.965"/>
      <point x="414.544" y="187.783"/>
      <point x="369.888" y="96.1798" type="curve" smooth="yes"/>
      <point x="353.652" y="62.8755"/>
      <point x="319.459" y="39.9061"/>
      <point x="279.943" y="39.9061" type="curve" smooth="yes"/>
      <point x="240.428" y="39.9061"/>
      <point x="206.348" y="62.8755"/>
      <point x="190.112" y="96.1798" type="curve" smooth="yes"/>
      <point x="189.999" y="96.1798"/>
      <point x="191.112" y="96.1923"/>
      <point x="191.112" y="96.1923" type="curve" smooth="yes"/>
    </contour>
  </outline>
</glyph>
<glyph name="two" format="2">
  <advance width="560"/>
  <unicode hex="0032"/>
  <outline>
    <contour>
      <point x="120" y="640" type="move"/>
      <point x="141.41" y="679.956" type="line" smooth="yes"/>
      <point x="169.061" y="727.884"/>
      <point x="220.841" y="760.171"/>
      <point x="280.102" y="760.171" type="curve" smooth="yes"/>
      <point x="368.408" y="760.171"/>
      <point x="440.102" y="688.478"/>
      <point x="440.102" y="600.171" type="curve" smooth="yes"/>
      <point x="440.102" y="569.22"/>
      <point x="431.092" y="539.969"/>
      <point x="415.849" y="515.472" type="curve"/>
      <point x="416.051" y="515.813"/>
      <point x="120" y="40"/>
      <point x="120" y="40" type="curve"/>
      <point x="440" y="40" type="line"/>
    </contour>
  </outline>
</glyph>
<glyph name="four" format="2">
  <advance width="640"/>
  <unicode hex="0034"/>
  <outline>
    <contour>
      <point x="280" y="760" type="move"/>
      <point x="120" y="200" type="line"/>
      <point x="520" y="200" type="line"/>
    </contour>
    <contour>
      <point x="400" y="360" type="move"/>
      <point x="400" y="40" type="line"/>
    </contour>
  </outline>
</glyph>
<glyph name="five" format="2">
  <advance width="560"/>
  <unicode hex="0035"/>
  <outline>
    <contour>
      <point x="440" y="760" type="move"/>
      <point x="120" y="760" type="line"/>
      <point x="120" y="440" type="line"/>
      <point x="280" y="440" type="line" smooth="yes"/>
      <point x="368.306" y="440"/>
      <point x="440" y="368.306"/>
      <point x="440" y="280" type="curve" smooth="yes"/>
      <point x="440" y="200" type="line" smooth="yes"/>
      <point x="440" y="111.694"/>
      <point x="368.306" y="40"/>
      <point x="280" y="40" type="curve" smooth="yes"/>
      <point x="120" y="40" type="line"/>
    </contour>
  </outline>
</glyph>
<glyph name="six" format="2">
  <advance width="560"/>
  <unicode hex="0036"/>
  <outline>
    <contour>
      <point x="120" y="440" type="move"/>
      <point x="280" y="440" type="line" smooth="yes"/>
      <point x="368.306" y="440"/>
      <point x="440" y="368.306"/>
      <point x="440" y="280" type="curve" smooth="yes"/>
      <point x="440" y="200" type="line" smooth="yes"/>
      <point x="440" y="111.694"/>
      <point x="368.306" y="40"/>
      <point x="280" y="40" type="curve" smooth="yes"/>
      <point x="191.694" y="40"/>
      <point x="120" y="111.694"/>
      <point x="120" y="200" type="curve" smooth="yes"/>
      <point x="120" y="440" type="line" smooth="yes"/>
      <point x="120" y="591.562"/>
      <point x="221.417" y="719.58"/>
      <point x="360" y="760" type="curve" smooth="yes"/>
    </contour>
  </outline>
</glyph>
<glyph name="eight" format="2">
  <advance width="560"/>
  <unicode hex="0038"/>
  <outline>
    <contour>
      <point x="120" y="280" type="move" smooth="yes"/>
      <point x="120" y="368.306"/>
      <point x="191.694" y="440"/>
      <point x="280" y="440" type="curve" smooth="yes"/>
      <point x="368.306" y="440"/>
      <point x="440" y="368.306"/>
      <point x="440" y="280" type="curve" smooth="yes"/>
      <point x="440" y="200" type="line" smooth="yes"/>
      <point x="440" y="111.694"/>
      <point x="368.306" y="40"/>
      <point x="280" y="40" type="curve" smooth="yes"/>
      <point x="191.694" y="40"/>
      <point x="120" y="111.694"/>
      <point x="120" y="200" type="curve" smooth="yes"/>
      <point x="120" y="279" type="line"/>
    </contour>
    <contour>
      <point x="280" y="440" type="move" smooth="yes"/>
      <point x="191.694" y="440"/>
      <point x="120" y="511.694"/>
      <point x="120" y="600" type="curve" smooth="yes"/>
      <point x="120" y="688.306"/>
      <point x="191.694" y="760"/>
      <point x="280" y="760" type="curve"/>
      <point x="362.336" y="753.475"/>
      <point x="427.211" y="684.506"/>
      <point x="427.211" y="600.505" type="curve" smooth="yes"/>
      <point x="427.211" y="516.503"/>
      <point x="362.336" y="447.525"/>
      <point x="280" y="441" type="curve" smooth="yes"/>
    </contour>
  </outline>
</glyph>
<glyph name="nine" format="2">
  <advance width="560"/>
  <unicode hex="0039"/>
  <outline>
    <contour>
      <point x="440" y="360" type="move"/>
      <point x="280" y="360" type="line" smooth="yes"/>
      <point x="191.694" y="360"/>
      <point x="120" y="431.694"/>
      <point x="120" y="520" type="curve" smooth="yes"/>
      <point x="120" y="600" type="line" smooth="yes"/>
      <point x="120" y="688.306"/>
      <point x="191.694" y="760"/>
      <point x="280" y="760" type="curve" smooth="yes"/>
      <point x="368.306" y="760"/>
      <point x="440" y="688.306"/>
      <point x="440" y="600" type="curve" smooth="yes"/>
      <point x="440" y="360" type="line" smooth="yes"/>
      <point x="440" y="208.438"/>
      <point x="338.583" y="80.42"/>
      <point x="200" y="40" type="curve" smooth="yes"/>
    </contour>
  </outline>
</glyph>
<glyph name="colon" format="2">
  <advance width="240"/>
  <unicode hex="003A"/>
  <outline>
    <contour>
      <point x="120" y="80" type="move"/>
      <point x="120" y="120" type="line"/>
    </contour>
    <contour>
      <point x="120" y="400" type="move"/>
      <point x="120" y="440" type="line"/>
    </contour>
  </outline>
</glyph>
<glyph name="semicolon" format="2">
  <advance width="280"/>
  <unicode hex="003B"/>
  <outline>
    <contour>
      <point x="120" y="-120" type="move"/>
      <point x="160" y="40" type="line"/>
    </contour>
    <contour>
      <point x="160" y="320" type="move"/>
      <point x="160" y="360" type="line"/>
    </contour>
  </outline>
</glyph>
<glyph name="question" format="2">
  <advance width="560"/>
  <unicode hex="003F"/>
  <outline>
    <contour>
      <point x="120" y="720" type="move" smooth="yes"/>
      <point x="181.487" y="745.619"/>
      <point x="249.278" y="760"/>
      <point x="320" y="760" type="curve" smooth="yes"/>
      <point x="386.23" y="760"/>
      <point x="440" y="706.23"/>
      <point x="440" y="640" type="curve" smooth="yes"/>
      <point x="440" y="606.261"/>
      <point x="426.072" y="575.748"/>
      <point x="403.626" y="553.938" type="curve" smooth="yes"/>
      <point x="403.6" y="553.945"/>
      <point x="304.249" y="457.375"/>
      <point x="304.249" y="457.375" type="curve" smooth="yes"/>
      <point x="289.285" y="442.834"/>
      <point x="280" y="422.492"/>
      <point x="280" y="400" type="curve"/>
      <point x="279.983" y="400.005"/>
      <point x="280" y="280"/>
      <point x="280" y="280" type="curve" smooth="yes"/>
    </contour>
    <contour>
      <point x="280" y="80" type="move"/>
      <point x="280" y="40" type="line"/>
    </contour>
  </outline>
</glyph>
<glyph name="at" format="2">
  <advance width="880"/>
  <unicode hex="0040"/>
  <outline>
    <contour>
      <point x="400" y="-200" type="move" smooth="yes"/>
      <point x="245.464" y="-200"/>
      <point x="120" y="-74.5362"/>
      <point x="120" y="80" type="curve" smooth="yes"/>
      <point x="120" y="440" type="line" smooth="yes"/>
      <point x="120" y="616.613"/>
      <point x="263.387" y="760"/>
      <point x="440" y="760" type="curve" smooth="yes"/>
      <point x="616.613" y="760"/>
      <point x="760" y="616.613"/>
      <point x="760" y="440" type="curve" smooth="yes"/>
      <point x="760" y="140" type="line" smooth="yes"/>
      <point x="760" y="84.8085"/>
      <point x="715.192" y="40"/>
      <point x="660" y="40" type="curve" smooth="yes"/>
      <point x="604.808" y="40"/>
      <point x="560" y="84.8085"/>
      <point x="560" y="140" type="curve" smooth="yes"/>
      <point x="560" y="520" type="line"/>
      <point x="440" y="520" type="line" smooth="yes"/>
      <point x="373.77" y="520"/>
      <point x="320" y="466.23"/>
      <point x="320" y="400" type="curve" smooth="yes"/>
      <point x="320" y="160" type="line" smooth="yes"/>
      <point x="320" y="93.7702"/>
      <point x="373.77" y="40"/>
      <point x="440" y="40" type="curve" smooth="yes"/>
      <point x="506.23" y="40"/>
      <point x="560" y="93.7702"/>
      <point x="560" y="160" type="curve" smooth="yes"/>
    </contour>
  </outline>
</glyph>
<glyph name="B" format="2">
  <advance width="640"/>
  <unicode hex="0042"/>
  <outline>
    <contour>
      <point x="120" y="40" type="move"/>
      <point x="120" y="760" type="line"/>
      <point x="320" y="760" type="line" smooth="yes"/>
      <point x="408.306" y="760"/>
      <point x="480" y="688.306"/>
      <point x="480" y="600" type="curve" smooth="yes"/>
      <point x="480" y="511.694"/>
      <point x="408.306" y="440"/>
      <point x="320" y="440" type="curve"/>
      <point x="430.383" y="440"/>
      <point x="520" y="350.383"/>
      <point x="520" y="240" type="curve" smooth="yes"/>
      <point x="520" y="129.617"/>
      <point x="430.383" y="40"/>
      <point x="320" y="40" type="curve" smooth="yes"/>
      <point x="121" y="40" type="line"/>
    </contour>
    <contour>
      <point x="120" y="440" type="move"/>
      <point x="320" y="440" type="line"/>
    </contour>
  </outline>
</glyph>
<glyph name="D" format="2">
  <advance width="640"/>
  <unicode hex="0044"/>
  <outline>
    <contour>
      <point x="120" y="40" type="move"/>
      <point x="120" y="760" type="line"/>
      <point x="360" y="760" type="line" smooth="yes"/>
      <point x="448.306" y="760"/>
      <point x="520" y="688.306"/>
      <point x="520" y="600" type="curve" smooth="yes"/>
      <point x="520" y="200" type="line" smooth="yes"/>
      <point x="520" y="111.694"/>
      <point x="448.306" y="40"/>
      <point x="360" y="40" type="curve" smooth="yes"/>
      <point x="121" y="40" type="line"/>
    </contour>
  </outline>
</glyph>
<glyph name="J" format="2">
  <advance width="480"/>
  <unicode hex="004A"/>
  <outline>
    <contour>
      <point x="120" y="40" type="move"/>
      <point x="200" y="40" type="line" smooth="yes"/>
      <point x="288.306" y="40"/>
      <point x="360" y="111.694"/>
      <point x="360" y="200" type="curve" smooth="yes"/>
      <point x="360" y="760" type="line"/>
    </contour>
  </outline>
</glyph>
<glyph name="L" format="2">
  <advance width="560"/>
  <unicode hex="004C"/>
  <outline>
    <contour>
      <point x="120" y="760" type="move"/>
      <point x="120" y="40" type="line"/>
      <point x="440" y="40" type="line"/>
    </contour>
  </outline>
</glyph>
<glyph name="M" format="2">
  <advance width="720"/>
  <unicode hex="004D"/>
  <outline>
    <contour>
      <point x="120" y="40" type="move"/>
      <point x="120" y="760" type="line"/>
      <point x="360" y="360" type="line"/>
      <point x="600" y="760" type="line"/>
      <point x="600" y="40" type="line"/>
    </contour>
  </outline>
</glyph>
<glyph name="Q" format="2">
  <advance width="720"/>
  <unicode hex="0051"/>
  <outline>
    <contour>
      <point x="120" y="560" type="move" smooth="yes"/>
      <point x="120" y="670.383"/>
      <point x="209.617" y="760"/>
      <point x="320" y="760" type="curve" smooth="yes"/>
      <point x="430.383" y="760"/>
      <point x="520" y="670.383"/>
      <point x="520" y="560" type="curve" smooth="yes"/>
      <point x="520" y="240" type="line" smooth="yes"/>
      <point x="520" y="129.617"/>
      <point x="430.383" y="40"/>
      <point x="320" y="40" type="curve" smooth="yes"/>
      <point x="209.617" y="40"/>
      <point x="120" y="129.617"/>
      <point x="120" y="240" type="curve" smooth="yes"/>
      <point x="120" y="559" type="line"/>
    </contour>
    <contour>
      <point x="440" y="200" type="move"/>
      <point x="600" y="40" type="line"/>
    </contour>
  </outline>
</glyph>
<glyph name="R" format="2">
  <advance width="640"/>
  <unicode hex="0052"/>
  <outline>
    <contour>
      <point x="120" y="40" type="move"/>
      <point x="120" y="760" type="line"/>
      <point x="320" y="760" type="line" smooth="yes"/>
      <point x="430.383" y="760"/>
      <point x="520" y="670.383"/>
      <point x="520" y="560" type="curve" smooth="yes"/>
      <point x="520" y="449.617"/>
      <point x="430.383" y="360"/>
      <point x="320" y="360" type="curve" smooth="yes"/>
      <point x="120" y="360" type="line"/>
    </contour>
    <contour>
      <point x="520" y="40" type="move"/>
      <point x="360" y="360" type="line"/>
    </contour>
  </outline>
</glyph>
<glyph name="T" format="2">
  <advance width="640"/>
  <unicode hex="0054"/>
  <outline>
    <contour>
      <point x="120" y="760" type="move"/>
      <point x="520" y="760" type="line"/>
    </contour>
    <contour>
      <point x="320" y="760" type="move"/>
      <point x="320" y="40" type="line"/>
    </contour>
  </outline>
</glyph>
<glyph name="V" format="2">
  <advance width="720"/>
  <unicode hex="0056"/>
  <outline>
    <contour>
      <point x="120" y="760" type="move"/>
      <point x="360" y="40" type="line"/>
      <point x="600" y="760" type="line"/>
    </contour>
  </outline>
</glyph>
<glyph name="Z" format="2">
  <advance width="640"/>
  <unicode hex="005A"/>
  <outline>
    <contour>
      <point x="120" y="760" type="move"/>
      <point x="520" y="760" type="line"/>
      <point x="120" y="40" type="line"/>
      <point x="520" y="40" type="line"/>
    </contour>
  </outline>
</glyph>
<glyph name="bracketleft" format="2">
  <advance width="320"/>
  <unicode hex="005B"/>
  <outline>
    <contour>
      <point x="200" y="-40" type="move"/>
      <point x="120" y="-40" type="line"/>
      <point x="120" y="840" type="line"/>
      <point x="200" y="840" type="line"/>
    </contour>
  </outline>
</glyph>
<glyph name="backslash" format="2">
  <advance width="560"/>
  <unicode hex="005C"/>
  <outline>
    <contour>
      <point x="120" y="760" type="move"/>
      <point x="440" y="40" type="line"/>
    </contour>
  </outline>
</glyph>
<glyph name="d" format="2">
  <advance width="560"/>
  <unicode hex="0064"/>
  <outline>
    <contour>
      <point x="440" y="760" type="move"/>
      <point x="440" y="40" type="line"/>
      <point x="240" y="40" type="line" smooth="yes"/>
      <point x="173.77" y="40"/>
      <point x="120" y="93.7702"/>
      <point x="120" y="160" type="curve" smooth="yes"/>
      <point x="120" y="400" type="line" smooth="yes"/>
      <point x="120" y="466.23"/>
      <point x="173.77" y="520"/>
      <point x="240" y="520" type="curve" smooth="yes"/>
      <point x="440" y="520" type="line"/>
    </contour>
  </outline>
</glyph>
<glyph name="f" format="2">
  <advance width="480"/>
  <unicode hex="0066"/>
  <outline>
    <contour>
      <point x="200" y="40" type="move"/>
      <point x="200" y="640" type="line" smooth="yes"/>
      <point x="200" y="706.23"/>
      <point x="253.77" y="760"/>
      <point x="320" y="760" type="curve" smooth="yes"/>
      <point x="360" y="760" type="line"/>
    </contour>
    <contour>
      <point x="120" y="520" type="move"/>
      <point x="360" y="520" type="line"/>
    </contour>
  </outline>
</glyph>
<glyph name="g" format="2">
  <advance width="560"/>
  <unicode hex="0067"/>
  <outline>
    <contour>
      <point x="440" y="40" type="move"/>
      <point x="240" y="40" type="line" smooth="yes"/>
      <point x="173.77" y="40"/>
      <point x="120" y="93.7702"/>
      <point x="120" y="160" type="curve" smooth="yes"/>
      <point x="120" y="400" type="line" smooth="yes"/>
      <point x="120" y="466.23"/>
      <point x="173.77" y="520"/>
      <point x="240" y="520" type="curve" smooth="yes"/>
      <point x="440" y="520" type="line"/>
      <point x="440" y="-80" type="line" smooth="yes"/>
      <point x="440" y="-146.23"/>
      <point x="386.23" y="-200"/>
      <point x="320" y="-200" type="curve" smooth="yes"/>
      <point x="160" y="-200" type="line"/>
    </contour>
  </outline>
</glyph>
<glyph name="h" format="2">
  <advance width="560"/>
  <unicode hex="0068"/>
  <outline>
    <contour>
      <point x="120" y="40" type="move"/>
      <point x="120" y="760" type="line"/>
    </contour>
    <contour>
      <point x="120" y="520" type="move"/>
      <point x="320" y="520" type="line" smooth="yes"/>
      <point x="386.23" y="520"/>
      <point x="440" y="466.23"/>
      <point x="440" y="400" type="curve" smooth="yes"/>
      <point x="440" y="40" type="line"/>
    </contour>
  </outline>
</glyph>
<glyph name="i" format="2">
  <advance width="240"/>
  <unicode hex="0069"/>
  <outline>
    <contour>
      <point x="120" y="40" type="move"/>
      <point x="120" y="520" type="line"/>
    </contour>
    <contour>
      <point x="120" y="720" type="move"/>
      <point x="120" y="760" type="line"/>
    </contour>
  </outline>
</glyph>
<glyph name="o" format="2">
  <advance width="560"/>
  <unicode hex="006F"/>
  <outline>
    <contour>
      <point x="120" y="360" type="move" smooth="yes"/>
      <point x="120" y="448.306"/>
      <point x="191.694" y="520"/>
      <point x="280" y="520" type="curve" smooth="yes"/>
      <point x="368.306" y="520"/>
      <point x="440" y="448.306"/>
      <point x="440" y="360" type="curve" smooth="yes"/>
      <point x="440" y="200" type="line" smooth="yes"/>
      <point x="440" y="111.694"/>
      <point x="368.306" y="40"/>
      <point x="280" y="40" type="curve" smooth="yes"/>
      <point x="191.694" y="40"/>
      <point x="120" y="111.694"/>
      <point x="120" y="200" type="curve" smooth="yes"/>
      <point x="120" y="359" type="line"/>
    </contour>
  </outline>
</glyph>
<glyph name="p" format="2">
  <advance width="560"/>
  <unicode hex="0070"/>
  <outline>
    <contour>
      <point x="120" y="-200" type="move"/>
      <point x="120" y="520" type="line"/>
      <point x="320" y="520" type="line" smooth="yes"/>
      <point x="386.23" y="520"/>
      <point x="440" y="466.23"/>
      <point x="440" y="400" type="curve" smooth="yes"/>
      <point x="440" y="160" type="line" smooth="yes"/>
      <point x="440" y="93.7702"/>
      <point x="386.23" y="40"/>
      <point x="320" y="40" type="curve" smooth="yes"/>
      <point x="120" y="40" type="line"/>
    </contour>
  </outline>
</glyph>
<glyph name="t" format="2">
  <advance width="480"/>
  <unicode hex="0074"/>
  <outline>
    <contour>
      <point x="200" y="40" type="move"/>
      <point x="200" y="760" type="line"/>
    </contour>
    <contour>
      <point x="120" y="520" type="move"/>
      <point x="360" y="520" type="line"/>
    </contour>
  </outline>
</glyph>
<glyph name="v" format="2">
  <advance width="560"/>
  <unicode hex="0076"/>
  <outline>
    <contour>
      <point x="120" y="520" type="move"/>
      <point x="280" y="40" type="line"/>
      <point x="440" y="520" type="line"/>
    </contour>
  </outline>
</glyph>
<glyph name="w" format="2">
  <advance width="720"/>
  <unicode hex="0077"/>
  <outline>
    <contour>
      <point x="120" y="520" type="move"/>
      <point x="240" y="40" type="line"/>
      <point x="360" y="360" type="line"/>
      <point x="480" y="40" type="line"/>
      <point x="600" y="520" type="line"/>
    </contour>
  </outline>
</glyph>
<glyph name="yen" format="2">
  <advance width="720"/>
  <unicode hex="00A5"/>
  <outline>
    <contour>
      <point x="120" y="760" type="move"/>
      <point x="328" y="448" type="line"/>
    </contour>
    <contour>
      <point x="392" y="448" type="move"/>
      <point x="600" y="760" type="line"/>
    </contour>
    <contour>
      <point x="360" y="40" type="move"/>
      <point x="360" y="400" type="line"/>
    </contour>
    <contour>
      <point x="120" y="240" type="move"/>
      <point x="600" y="240" type="line"/>
    </contour>
    <contour>
      <point x="120" y="440" type="move"/>
      <point x="320" y="440" type="line"/>
    </contour>
    <contour>
      <point x="400" y="440" type="move"/>
      <point x="600" y="440" type="line"/>
    </contour>
  </outline>
</glyph>
<glyph name="guillemotleft" format="2">
  <advance width="640"/>
  <unicode hex="00AB"/>
  <outline>
    <contour>
      <point x="280" y="80" type="move"/>
      <point x="120" y="280" type="line"/>
      <point x="280" y="480" type="line"/>
    </contour>
    <contour>
      <point x="520" y="80" type="move"/>
      <point x="360" y="280" type="line"/>
      <point x="520" y="480" type="line"/>
    </contour>
  </outline>
</glyph>
<glyph name="registered" format="2">
  <advance width="880"/>
  <unicode hex="00AE"/>
  <outline>
    <contour>
      <point x="440" y="120" type="move" smooth="yes"/>
      <point x="263.387" y="120"/>
      <point x="120" y="263.387"/>
      <point x="120" y="440" type="curve" smooth="yes"/>
      <point x="120" y="616.613"/>
      <point x="263.387" y="760"/>
      <point x="440" y="760" type="curve"/>
      <point x="608.191" y="750.587"/>
      <point x="741.869" y="611.034"/>
      <point x="741.869" y="440.506" type="curve" smooth="yes"/>
      <point x="741.869" y="269.978"/>
      <point x="608.191" y="130.413"/>
      <point x="440" y="121" type="curve" smooth="yes"/>
    </contour>
    <contour>
      <point x="360" y="280" type="move"/>
      <point x="360" y="600" type="line"/>
      <point x="440" y="600" type="line" smooth="yes"/>
      <point x="484.153" y="600"/>
      <point x="520" y="564.153"/>
      <point x="520" y="520" type="curve" smooth="yes"/>
      <point x="520" y="475.847"/>
      <point x="484.153" y="440"/>
      <point x="440" y="440" type="curve" smooth="yes"/>
      <point x="360" y="440" type="line"/>
    </contour>
    <contour>
      <point x="520" y="280" type="move"/>
      <point x="440" y="440" type="line"/>
    </contour>
  </outline>
</glyph>
<glyph name="plusminus" format="2">
  <advance width="560"/>
  <unicode hex="00B1"/>
  <outline>
    <contour>
      <point x="120" y="40" type="move"/>
      <point x="440" y="40" type="line"/>
    </contour>
    <contour>
      <point x="120" y="360" type="move"/>
      <point x="440" y="360" type="line"/>
    </contour>
    <contour>
      <point x="280" y="200" type="move"/>
      <point x="280" y="520" type="line"/>
    </contour>
  </outline>
</glyph>
<glyph name="ordmasculine" format="2">
  <advance width="560"/>
  <unicode hex="00BA"/>
  <outline>
    <contour>
      <point x="120" y="160" type="move"/>
      <point x="440" y="160" type="line"/>
    </contour>
    <contour>
      <point x="120" y="600" type="move" smooth="yes"/>
      <point x="120" y="688.306"/>
      <point x="191.694" y="760"/>
      <point x="280" y="760" type="curve" smooth="yes"/>
      <point x="368.306" y="760"/>
      <point x="440" y="688.306"/>
      <point x="440" y="600" type="curve" smooth="yes"/>
      <point x="440" y="520" type="line" smooth="yes"/>
      <point x="440" y="431.694"/>
      <point x="368.306" y="360"/>
      <point x="280" y="360" type="curve" smooth="yes"/>
      <point x="191.694" y="360"/>
      <point x="120" y="431.694"/>
      <point x="120" y="520" type="curve" smooth="yes"/>
      <point x="120" y="599" type="line"/>
    </contour>
  </outline>
</glyph>
<glyph name="Atilde" format="2">
  <advance width="720"/>
  <unicode hex="00C3"/>
  <outline>
    <contour>
      <point x="120" y="40" type="move"/>
      <point x="360" y="760" type="line"/>
      <point x="600" y="40" type="line"/>
    </contour>
    <contour>
      <point x="200" y="240" type="move"/>
      <point x="520" y="240" type="line"/>
    </contour>
    <contour>
      <point x="200" y="1040" type="move"/>
      <point x="232" y="1064" type="line" smooth="yes"/>
      <point x="245.363" y="1074.02"/>
      <point x="261.96" y="1079.96"/>
      <point x="279.933" y="1079.96" type="curve" smooth="yes"/>
      <point x="297.906" y="1079.96"/>
      <point x="314.637" y="1074.02"/>
      <point x="328" y="1064" type="curve"/>
      <point x="327.866" y="1064"/>
      <point x="392" y="1016"/>
      <point x="392" y="1016" type="curve" smooth="yes"/>
      <point x="405.363" y="1005.98"/>
      <point x="421.96" y="1000.04"/>
      <point x="439.933" y="1000.04" type="curve" smooth="yes"/>
      <point x="457.906" y="1000.04"/>
      <point x="474.637" y="1005.98"/>
      <point x="488" y="1016" type="curve"/>
      <point x="487.866" y="1016"/>
      <point x="520" y="1040"/>
      <point x="520" y="1040" type="curve" smooth="yes"/>
    </contour>
  </outline>
</glyph>
<glyph name="Adieresis" format="2">
  <advance width="720"/>
  <unicode hex="00C4"/>
  <outline>
    <contour>
      <point x="120" y="40" type="move"/>
      <point x="360" y="760" type="line"/>
      <point x="600" y="40" type="line"/>
    </contour>
    <contour>
      <point x="200" y="240" type="move"/>
      <point x="520" y="240" type="line"/>
    </contour>
    <contour>
      <point x="240" y="1000" type="move"/>
      <point x="240" y="960" type="line"/>
    </contour>
    <contour>
      <point x="480" y="1000" type="move"/>
      <point x="480" y="960" type="line"/>
    </contour>
  </outline>
</glyph>
<glyph name="Aring" format="2">
  <advance width="720"/>
  <unicode hex="00C5"/>
  <outline>
    <contour>
      <point x="120" y="40" type="move"/>
      <point x="360" y="760" type="line"/>
      <point x="600" y="40" type="line"/>
    </contour>
    <contour>
      <point x="200" y="240" type="move"/>
      <point x="520" y="240" type="line"/>
    </contour>
    <contour>
      <point x="360" y="880" type="move" smooth="yes"/>
      <point x="304.808" y="880"/>
      <point x="260" y="924.808"/>
      <point x="260" y="980" type="curve" smooth="yes"/>
      <point x="260" y="1035.19"/>
      <point x="304.808" y="1080"/>
      <point x="360" y="1080" type="curve"/>
      <point x="410.461" y="1074.93"/>
      <point x="449.911" y="1032.29"/>
      <point x="449.911" y="980.504" type="curve" smooth="yes"/>
      <point x="449.911" y="928.717"/>
      <point x="410.461" y="886.065"/>
      <point x="360" y="881" type="curve" smooth="yes"/>
    </contour>
  </outline>
</glyph>
<glyph name="AE" format="2">
  <advance width="880"/>
  <unicode hex="00C6"/>
  <outline>
    <contour>
      <point x="120" y="40" type="move"/>
      <point x="360" y="760" type="line"/>
      <point x="760" y="760" type="line"/>
    </contour>
    <contour>
      <point x="520" y="760" type="move"/>
      <point x="520" y="40" type="line"/>
      <point x="760" y="40" type="line"/>
    </contour>
    <contour>
      <point x="200" y="240" type="move"/>
      <point x="520" y="240" type="line"/>
    </contour>
    <contour>
      <point x="520" y="440" type="move"/>
      <point x="720" y="440" type="line"/>
    </contour>
  </outline>
</glyph>
<glyph name="Ccedilla" format="2">
  <advance width="560"/>
  <unicode hex="00C7"/>
  <outline>
    <contour>
      <point x="440" y="40" type="move"/>
      <point x="280" y="40" type="line" smooth="yes"/>
      <point x="191.694" y="40"/>
      <point x="120" y="111.694"/>
      <point x="120" y="200" type="curve" smooth="yes"/>
      <point x="120" y="600" type="line" smooth="yes"/>
      <point x="120" y="688.306"/>
      <point x="191.694" y="760"/>
      <point x="280" y="760" type="curve" smooth="yes"/>
      <point x="440" y="760" type="line"/>
    </contour>
    <contour>
      <point x="280" y="40" type="move"/>
      <point x="240" y="-120" type="line"/>
    </contour>
  </outline>
</glyph>
<glyph name="Egrave" format="2">
  <advance width="560"/>
  <unicode hex="00C8"/>
  <outline>
    <contour>
      <point x="440" y="40" type="move"/>
      <point x="120" y="40" type="line"/>
      <point x="120" y="760" type="line"/>
      <point x="440" y="760" type="line"/>
    </contour>
    <contour>
      <point x="120" y="440" type="move"/>
      <point x="360" y="440" type="line"/>
    </contour>
    <contour>
      <point x="200" y="1080" type="move"/>
      <point x="360" y="960" type="line"/>
    </contour>
  </outline>
</glyph>
<glyph name="Edieresis" format="2">
  <advance width="560"/>
  <unicode hex="00CB"/>
  <outline>
    <contour>
      <point x="440" y="40" type="move"/>
      <point x="120" y="40" type="line"/>
      <point x="120" y="760" type="line"/>
      <point x="440" y="760" type="line"/>
    </contour>
    <contour>
      <point x="120" y="440" type="move"/>
      <point x="360" y="440" type="line"/>
    </contour>
    <contour>
      <point x="160" y="1000" type="move"/>
      <point x="160" y="960" type="line"/>
    </contour>
    <contour>
      <point x="400" y="1000" type="move"/>
      <point x="400" y="960" type="line"/>
    </contour>
  </outline>
</glyph>
<glyph name="Igrave" format="2">
  <advance width="400"/>
  <unicode hex="00CC"/>
  <outline>
    <contour>
      <point x="200" y="40" type="move"/>
      <point x="200" y="760" type="line"/>
    </contour>
    <contour>
      <point x="120" y="1080" type="move"/>
      <point x="280" y="960" type="line"/>
    </contour>
  </outline>
</glyph>
<glyph name="Iacute" format="2">
  <advance width="400"/>
  <unicode hex="00CD"/>
  <outline>
    <contour>
      <point x="200" y="40" type="move"/>
      <point x="200" y="760" type="line"/>
    </contour>
    <contour>
      <point x="120" y="960" type="move"/>
      <point x="280" y="1080" type="line"/>
    </contour>
  </outline>
</glyph>
<glyph name="Idieresis" format="2">
  <advance width="480"/>
  <unicode hex="00CF"/>
  <outline>
    <contour>
      <point x="240" y="40" type="move"/>
      <point x="240" y="760" type="line"/>
    </contour>
    <contour>
      <point x="120" y="1000" type="move"/>
      <point x="120" y="960" type="line"/>
    </contour>
    <contour>
      <point x="360" y="1000" type="move"/>
      <point x="360" y="960" type="line"/>
    </contour>
  </outline>
</glyph>
<glyph name="Ucircumflex" format="2">
  <advance width="640"/>
  <unicode hex="00DB"/>
  <outline>
    <contour>
      <point x="120" y="760" type="move"/>
      <point x="120" y="240" type="line" smooth="yes"/>
      <point x="120" y="129.617"/>
      <point x="209.617" y="40"/>
      <point x="320" y="40" type="curve" smooth="yes"/>
      <point x="430.383" y="40"/>
      <point x="520" y="129.617"/>
      <point x="520" y="240" type="curve" smooth="yes"/>
      <point x="520" y="760" type="line"/>
    </contour>
    <contour>
      <point x="200" y="960" type="move"/>
      <point x="320" y="1080" type="line"/>
      <point x="440" y="960" type="line"/>
    </contour>
  </outline>
</glyph>
<glyph name="Yacute" format="2">
  <advance width="720"/>
  <unicode hex="00DD"/>
  <outline>
    <contour>
      <point x="120" y="760" type="move"/>
      <point x="360" y="412.47" type="line"/>
      <point x="600" y="760" type="line"/>
    </contour>
    <contour>
      <point x="360" y="40" type="move"/>
      <point x="360" y="440" type="line"/>
    </contour>
    <contour>
      <point x="280" y="960" type="move"/>
      <point x="440" y="1080" type="line"/>
    </contour>
  </outline>
</glyph>
<glyph name="germandbls" format="2">
  <advance width="640"/>
  <unicode hex="00DF"/>
  <outline>
    <contour>
      <point x="120" y="40" type="move"/>
      <point x="120" y="640" type="line" smooth="yes"/>
      <point x="120" y="706.23"/>
      <point x="173.77" y="760"/>
      <point x="240" y="760" type="curve" smooth="yes"/>
      <point x="400" y="760" type="line" smooth="yes"/>
      <point x="466.23" y="760"/>
      <point x="520" y="706.23"/>
      <point x="520" y="640" type="curve" smooth="yes"/>
      <point x="520" y="600" type="line" smooth="yes"/>
      <point x="520" y="533.77"/>
      <point x="466.23" y="480"/>
      <point x="400" y="480" type="curve"/>
      <point x="466.23" y="480"/>
      <point x="520" y="426.23"/>
      <point x="520" y="360" type="curve" smooth="yes"/>
      <point x="520" y="160" type="line" smooth="yes"/>
      <point x="520" y="93.7702"/>
      <point x="466.23" y="40"/>
      <point x="400" y="40" type="curve" smooth="yes"/>
    </contour>
  </outline>
</glyph>
<glyph name="aring" format="2">
  <advance width="560"/>
  <unicode hex="00E5"/>
  <outline>
    <contour>
      <point x="160" y="520" type="move"/>
      <point x="320" y="520" type="line" smooth="yes"/>
      <point x="386.23" y="520"/>
      <point x="440" y="466.23"/>
      <point x="440" y="400" type="curve" smooth="yes"/>
      <point x="440" y="40" type="line"/>
      <point x="240" y="40" type="line" smooth="yes"/>
      <point x="173.77" y="40"/>
      <point x="120" y="93.7702"/>
      <point x="120" y="160" type="curve" smooth="yes"/>
      <point x="120" y="226.23"/>
      <point x="173.77" y="280"/>
      <point x="240" y="280" type="curve" smooth="yes"/>
      <point x="440" y="280" type="line"/>
    </contour>
    <contour>
      <point x="280" y="720" type="move" smooth="yes"/>
      <point x="224.808" y="720"/>
      <point x="180" y="764.808"/>
      <point x="180" y="820" type="curve" smooth="yes"/>
      <point x="180" y="875.192"/>
      <point x="224.808" y="920"/>
      <point x="280" y="920" type="curve"/>
      <point x="330.461" y="914.935"/>
      <point x="369.911" y="872.29"/>
      <point x="369.911" y="820.504" type="curve" smooth="yes"/>
      <point x="369.911" y="768.717"/>
      <point x="330.461" y="726.065"/>
      <point x="280" y="721" type="curve" smooth="yes"/>
    </contour>
  </outline>
</glyph>
<glyph name="ae" format="2">
  <advance width="720"/>
  <unicode hex="00E6"/>
  <outline>
    <contour>
      <point x="160" y="520" type="move"/>
      <point x="240" y="520" type="line" smooth="yes"/>
      <point x="306.23" y="520"/>
      <point x="360" y="466.23"/>
      <point x="360" y="400" type="curve" smooth="yes"/>
      <point x="360" y="40" type="line"/>
      <point x="240" y="40" type="line" smooth="yes"/>
      <point x="173.77" y="40"/>
      <point x="120" y="93.7702"/>
      <point x="120" y="160" type="curve" smooth="yes"/>
      <point x="120" y="226.23"/>
      <point x="173.77" y="280"/>
      <point x="240" y="280" type="curve" smooth="yes"/>
      <point x="600" y="280" type="line"/>
      <point x="600" y="400" type="line" smooth="yes"/>
      <point x="600" y="466.23"/>
      <point x="546.23" y="520"/>
      <point x="480" y="520" type="curve" smooth="yes"/>
      <point x="413.77" y="520"/>
      <point x="360" y="466.23"/>
      <point x="360" y="400" type="curve" smooth="yes"/>
      <point x="360" y="160" type="line" smooth="yes"/>
      <point x="360" y="93.7702"/>
      <point x="413.77" y="40"/>
      <point x="480" y="40" type="curve" smooth="yes"/>
      <point x="600" y="40" type="line"/>
    </contour>
  </outline>
</glyph>
<glyph name="ccedilla" format="2">
  <advance width="480"/>
  <unicode hex="00E7"/>
  <outline>
    <contour>
      <point x="360" y="40" type="move"/>
      <point x="240" y="40" type="line" smooth="yes"/>
      <point x="173.77" y="40"/>
      <point x="120" y="93.7702"/>
      <point x="120" y="160" type="curve" smooth="yes"/>
      <point x="120" y="400" type="line" smooth="yes"/>
      <point x="120" y="466.23"/>
      <point x="173.77" y="520"/>
      <point x="240" y="520" type="curve" smooth="yes"/>
      <point x="360" y="520" type="line"/>
    </contour>
    <contour>
      <point x="240" y="40" type="move"/>
      <point x="200" y="-120" type="line"/>
    </contour>
  </outline>
</glyph>
<glyph name="iacute" format="2">
  <advance width="400"/>
  <unicode hex="00ED"/>
  <outline>
    <contour>
      <point x="200" y="40" type="move"/>
      <point x="200" y="520" type="line"/>
    </contour>
    <contour>
      <point x="120" y="720" type="move"/>
      <point x="280" y="840" type="line"/>
    </contour>
  </outline>
</glyph>
<glyph name="idieresis" format="2">
  <advance width="560"/>
  <unicode hex="00EF"/>
  <outline>
    <contour>
      <point x="280" y="40" type="move"/>
      <point x="280" y="520" type="line"/>
    </contour>
    <contour>
      <point x="120" y="720" type="move"/>
      <point x="120" y="760" type="line"/>
    </contour>
    <contour>
      <point x="440" y="720" type="move"/>
      <point x="440" y="760" type="line"/>
    </contour>
  </outline>
</glyph>
<glyph name="divide" format="2">
  <advance width="560"/>
  <unicode hex="00F7"/>
  <outline>
    <contour>
      <point x="120" y="280" type="move"/>
      <point x="440" y="280" type="line"/>
    </contour>
    <contour>
      <point x="280" y="80" type="move"/>
      <point x="280" y="120" type="line"/>
    </contour>
    <contour>
      <point x="280" y="440" type="move"/>
      <point x="280" y="480" type="line"/>
    </contour>
  </outline>
</glyph>
<glyph name="oslash" format="2">
  <advance width="720"/>
  <unicode hex="00F8"/>
  <outline>
    <contour>
      <point x="200" y="360" type="move" smooth="yes"/>
      <point x="200" y="448.306"/>
      <point x="271.694" y="520"/>
      <point x="360" y="520" type="curve" smooth="yes"/>
      <point x="448.306" y="520"/>
      <point x="520" y="448.306"/>
      <point x="520" y="360" type="curve" smooth="yes"/>
      <point x="520" y="200" type="line" smooth="yes"/>
      <point x="520" y="111.694"/>
      <point x="448.306" y="40"/>
      <point x="360" y="40" type="curve" smooth="yes"/>
      <point x="271.694" y="40"/>
      <point x="200" y="111.694"/>
      <point x="200" y="200" type="curve" smooth="yes"/>
      <point x="200" y="359" type="line"/>
    </contour>
    <contour>
      <point x="120" y="40" type="move"/>
      <point x="600" y="520" type="line"/>
    </contour>
  </outline>
</glyph>
<glyph name="udieresis" format="2">
  <advance width="560"/>
  <unicode hex="00FC"/>
  <outline>
    <contour>
      <point x="120" y="520" type="move"/>
      <point x="120" y="160" type="line" smooth="yes"/>
      <point x="120" y="93.7702"/>
      <point x="173.77" y="40"/>
      <point x="240" y="40" type="curve" smooth="yes"/>
      <point x="440" y="40" type="line"/>
      <point x="440" y="520" type="line"/>
    </contour>
    <contour>
      <point x="120" y="760" type="move"/>
      <point x="152" y="784" type="line" smooth="yes"/>
      <point x="165.363" y="794.022"/>
      <point x="181.96" y="799.962"/>
      <point x="199.933" y="799.962" type="curve" smooth="yes"/>
      <point x="217.906" y="799.962"/>
      <point x="234.637" y="794.022"/>
      <point x="248" y="784" type="curve"/>
      <point x="247.866" y="784"/>
      <point x="312" y="736"/>
      <point x="312" y="736" type="curve" smooth="yes"/>
      <point x="325.363" y="725.978"/>
      <point x="341.96" y="720.038"/>
      <point x="359.933" y="720.038" type="curve" smooth="yes"/>
      <point x="377.906" y="720.038"/>
      <point x="394.637" y="725.978"/>
      <point x="408" y="736" type="curve"/>
      <point x="407.866" y="736"/>
      <point x="440" y="760"/>
      <point x="440" y="760" type="curve" smooth="yes"/>
    </contour>
  </outline>
</glyph>
<glyph name="Amacron" format="2">
  <advance width="720"/>
  <unicode hex="0100"/>
  <outline>
    <contour>
      <point x="120" y="40" type="move"/>
      <point x="360" y="760" type="line"/>
      <point x="600" y="40" type="line"/>
    </contour>
    <contour>
      <point x="200" y="240" type="move"/>
      <point x="520" y="240" type="line"/>
    </contour>
    <contour>
      <point x="160" y="1000" type="move"/>
      <point x="560" y="1000" type="line"/>
    </contour>
  </outline>
</glyph>
<glyph name="Abreve" format="2">
  <advance width="720"/>
  <unicode hex="0102"/>
  <outline>
    <contour>
      <point x="120" y="40" type="move"/>
      <point x="360" y="760" type="line"/>
      <point x="600" y="40" type="line"/>
    </contour>
    <contour>
      <point x="200" y="240" type="move"/>
      <point x="520" y="240" type="line"/>
    </contour>
    <contour>
      <point x="240" y="1080" type="move" smooth="yes"/>
      <point x="240" y="1013.77"/>
      <point x="293.77" y="960"/>
      <point x="360" y="960" type="curve" smooth="yes"/>
      <point x="426.23" y="960"/>
      <point x="480" y="1013.77"/>
      <point x="480" y="1080" type="curve" smooth="yes"/>
    </contour>
  </outline>
</glyph>
<glyph name="abreve" format="2">
  <advance width="560"/>
  <unicode hex="0103"/>
  <outline>
    <contour>
      <point x="160" y="520" type="move"/>
      <point x="320" y="520" type="line" smooth="yes"/>
      <point x="386.23" y="520"/>
      <point x="440" y="466.23"/>
      <point x="440" y="400" type="curve" smooth="yes"/>
      <point x="440" y="40" type="line"/>
      <point x="240" y="40" type="line" smooth="yes"/>
      <point x="173.77" y="40"/>
      <point x="120" y="93.7702"/>
      <point x="120" y="160" type="curve" smooth="yes"/>
      <point x="120" y="226.23"/>
      <point x="173.77" y="280"/>
      <point x="240" y="280" type="curve" smooth="yes"/>
      <point x="440" y="280" type="line"/>
    </contour>
    <contour>
      <point x="160" y="880" type="move" smooth="yes"/>
      <point x="160" y="813.77"/>
      <point x="213.77" y="760"/>
      <point x="280" y="760" type="curve" smooth="yes"/>
      <point x="346.23" y="760"/>
      <point x="400" y="813.77"/>
      <point x="400" y="880" type="curve" smooth="yes"/>
    </contour>
  </outline>
</glyph>
<glyph name="cacute" format="2">
  <advance width="480"/>
  <unicode hex="0107"/>
  <outline>
    <contour>
      <point x="360" y="40" type="move"/>
      <point x="240" y="40" type="line" smooth="yes"/>
      <point x="173.77" y="40"/>
      <point x="120" y="93.7702"/>
      <point x="120" y="160" type="curve" smooth="yes"/>
      <point x="120" y="400" type="line" smooth="yes"/>
      <point x="120" y="466.23"/>
      <point x="173.77" y="520"/>
      <point x="240" y="520" type="curve" smooth="yes"/>
      <point x="360" y="520" type="line"/>
    </contour>
    <contour>
      <point x="160" y="720" type="move"/>
      <point x="320" y="840" type="line"/>
    </contour>
  </outline>
</glyph>
<glyph name="Emacron" format="2">
  <advance width="640"/>
  <unicode hex="0112"/>
  <outline>
    <contour>
      <point x="480" y="40" type="move"/>
      <point x="160" y="40" type="line"/>
      <point x="160" y="760" type="line"/>
      <point x="480" y="760" type="line"/>
    </contour>
    <contour>
      <point x="160" y="440" type="move"/>
      <point x="400" y="440" type="line"/>
    </contour>
    <contour>
      <point x="120" y="1000" type="move"/>
      <point x="520" y="1000" type="line"/>
    </contour>
  </outline>
</glyph>
<glyph name="Edotaccent" format="2">
  <advance width="560"/>
  <unicode hex="0116"/>
  <outline>
    <contour>
      <point x="440" y="40" type="move"/>
      <point x="120" y="40" type="line"/>
      <point x="120" y="760" type="line"/>
      <point x="440" y="760" type="line"/>
    </contour>
    <contour>
      <point x="120" y="440" type="move"/>
      <point x="360" y="440" type="line"/>
    </contour>
    <contour>
      <point x="280" y="960" type="move" smooth="yes"/>
      <point x="257.923" y="960"/>
      <point x="240" y="977.923"/>
      <point x="240" y="1000" type="curve" smooth="yes"/>
      <point x="240" y="1022.08"/>
      <point x="257.923" y="1040"/>
      <point x="280" y="1040" type="curve" smooth="yes"/>
      <point x="299.067" y="1036.96"/>
      <point x="313.657" y="1020.42"/>
      <point x="313.657" y="1000.5" type="curve" smooth="yes"/>
      <point x="313.657" y="980.583"/>
      <point x="299.067" y="964.043"/>
      <point x="280" y="961" type="curve" smooth="yes"/>
    </contour>
  </outline>
</glyph>
<glyph name="edotaccent" format="2">
  <advance width="560"/>
  <unicode hex="0117"/>
  <outline>
    <contour>
      <point x="440" y="40" type="move"/>
      <point x="240" y="40" type="line" smooth="yes"/>
      <point x="173.77" y="40"/>
      <point x="120" y="93.7702"/>
      <point x="120" y="160" type="curve" smooth="yes"/>
      <point x="120" y="360" type="line" smooth="yes"/>
      <point x="120" y="448.306"/>
      <point x="191.694" y="520"/>
      <point x="280" y="520" type="curve" smooth="yes"/>
      <point x="368.306" y="520"/>
      <point x="440" y="448.306"/>
      <point x="440" y="360" type="curve" smooth="yes"/>
      <point x="440" y="280" type="line"/>
      <point x="120" y="280" type="line"/>
    </contour>
    <contour>
      <point x="280" y="760" type="move" smooth="yes"/>
      <point x="257.923" y="760"/>
      <point x="240" y="777.923"/>
      <point x="240" y="800" type="curve" smooth="yes"/>
      <point x="240" y="822.077"/>
      <point x="257.923" y="840"/>
      <point x="280" y="840" type="curve" smooth="yes"/>
      <point x="299.067" y="836.957"/>
      <point x="313.657" y="820.419"/>
      <point x="313.657" y="800.501" type="curve" smooth="yes"/>
      <point x="313.657" y="780.583"/>
      <point x="299.067" y="764.043"/>
      <point x="280" y="761" type="curve" smooth="yes"/>
    </contour>
  </outline>
</glyph>
<glyph name="gcircumflex" format="2">
  <advance width="560"/>
  <unicode hex="011D"/>
  <outline>
    <contour>
      <point x="440" y="40" type="move"/>
      <point x="240" y="40" type="line" smooth="yes"/>
      <point x="173.77" y="40"/>
      <point x="120" y="93.7702"/>
      <point x="120" y="160" type="curve" smooth="yes"/>
      <point x="120" y="400" type="line" smooth="yes"/>
      <point x="120" y="466.23"/>
      <point x="173.77" y="520"/>
      <point x="240" y="520" type="curve" smooth="yes"/>
      <point x="440" y="520" type="line"/>
      <point x="440" y="-80" type="line" smooth="yes"/>
      <point x="440" y="-146.23"/>
      <point x="386.23" y="-200"/>
      <point x="320" y="-200" type="curve" smooth="yes"/>
      <point x="160" y="-200" type="line"/>
    </contour>
    <contour>
      <point x="160" y="720" type="move"/>
      <point x="280" y="840" type="line"/>
      <point x="400" y="720" type="line"/>
    </contour>
  </outline>
</glyph>
<glyph name="Gbreve" format="2">
  <advance width="640"/>
  <unicode hex="011E"/>
  <outline>
    <contour>
      <point x="400" y="440" type="move"/>
      <point x="520" y="440" type="line"/>
      <point x="520" y="40" type="line"/>
      <point x="280" y="40" type="line" smooth="yes"/>
      <point x="191.694" y="40"/>
      <point x="120" y="111.694"/>
      <point x="120" y="200" type="curve" smooth="yes"/>
      <point x="120" y="600" type="line" smooth="yes"/>
      <point x="120" y="688.306"/>
      <point x="191.694" y="760"/>
      <point x="280" y="760" type="curve" smooth="yes"/>
      <point x="520" y="760" type="line"/>
    </contour>
    <contour>
      <point x="200" y="1080" type="move" smooth="yes"/>
      <point x="200" y="1013.77"/>
      <point x="253.77" y="960"/>
      <point x="320" y="960" type="curve" smooth="yes"/>
      <point x="386.23" y="960"/>
      <point x="440" y="1013.77"/>
      <point x="440" y="1080" type="curve" smooth="yes"/>
    </contour>
  </outline>
</glyph>
<glyph name="Gdotaccent" format="2">
  <advance width="640"/>
  <unicode hex="0120"/>
  <outline>
    <contour>
      <point x="400" y="440" type="move"/>
      <point x="520" y="440" type="line"/>
      <point x="520" y="40" type="line"/>
      <point x="280" y="40" type="line" smooth="yes"/>
      <point x="191.694" y="40"/>
      <point x="120" y="111.694"/>
      <point x="120" y="200" type="curve" smooth="yes"/>
      <point x="120" y="600" type="line" smooth="yes"/>
      <point x="120" y="688.306"/>
      <point x="191.694" y="760"/>
      <point x="280" y="760" type="curve" smooth="yes"/>
      <point x="520" y="760" type="line"/>
    </contour>
    <contour>
      <point x="320" y="960" type="move" smooth="yes"/>
      <point x="297.923" y="960"/>
      <point x="280" y="977.923"/>
      <point x="280" y="1000" type="curve" smooth="yes"/>
      <point x="280" y="1022.08"/>
      <point x="297.923" y="1040"/>
      <point x="320" y="1040" type="curve" smooth="yes"/>
      <point x="339.067" y="1036.96"/>
      <point x="353.657" y="1020.42"/>
      <point x="353.657" y="1000.5" type="curve" smooth="yes"/>
      <point x="353.657" y="980.583"/>
      <point x="339.067" y="964.043"/>
      <point x="320" y="961" type="curve" smooth="yes"/>
    </contour>
  </outline>
</glyph>
<glyph name="gdotaccent" format="2">
  <advance width="560"/>
  <unicode hex="0121"/>
  <outline>
    <contour>
      <point x="440" y="40" type="move"/>
      <point x="240" y="40" type="line" smooth="yes"/>
      <point x="173.77" y="40"/>
      <point x="120" y="93.7702"/>
      <point x="120" y="160" type="curve" smooth="yes"/>
      <point x="120" y="400" type="line" smooth="yes"/>
      <point x="120" y="466.23"/>
      <point x="173.77" y="520"/>
      <point x="240" y="520" type="curve" smooth="yes"/>
      <point x="440" y="520" type="line"/>
      <point x="440" y="-80" type="line" smooth="yes"/>
      <point x="440" y="-146.23"/>
      <point x="386.23" y="-200"/>
      <point x="320" y="-200" type="curve" smooth="yes"/>
      <point x="160" y="-200" type="line"/>
    </contour>
    <contour>
      <point x="280" y="760" type="move" smooth="yes"/>
      <point x="257.923" y="760"/>
      <point x="240" y="777.923"/>
      <point x="240" y="800" type="curve" smooth="yes"/>
      <point x="240" y="822.077"/>
      <point x="257.923" y="840"/>
      <point x="280" y="840" type="curve" smooth="yes"/>
      <point x="299.067" y="836.957"/>
      <point x="313.657" y="820.419"/>
      <point x="313.657" y="800.501" type="curve" smooth="yes"/>
      <point x="313.657" y="780.583"/>
      <point x="299.067" y="764.043"/>
      <point x="280" y="761" type="curve" smooth="yes"/>
    </contour>
  </outline>
</glyph>
<glyph name="Itilde" format="2">
  <advance width="560"/>
  <unicode hex="0128"/>
  <outline>
    <contour>
      <point x="280" y="40" type="move"/>
      <point x="280" y="760" type="line"/>
    </contour>
    <contour>
      <point x="120" y="1040" type="move"/>
      <point x="152" y="1064" type="line" smooth="yes"/>
      <point x="165.363" y="1074.02"/>
      <point x="181.96" y="1079.96"/>
      <point x="199.933" y="1079.96" type="curve" smooth="yes"/>
      <point x="217.906" y="1079.96"/>
      <point x="234.637" y="1074.02"/>
      <point x="248" y="1064" type="curve"/>
      <point x="247.866" y="1064"/>
      <point x="312" y="1016"/>
      <point x="312" y="1016" type="curve" smooth="yes"/>
      <point x="325.363" y="1005.98"/>
      <point x="341.96" y="1000.04"/>
      <point x="359.933" y="1000.04" type="curve" smooth="yes"/>
      <point x="377.906" y="1000.04"/>
      <point x="394.637" y="1005.98"/>
      <point x="408" y="1016" type="curve"/>
      <point x="407.866" y="1016"/>
      <point x="440" y="1040"/>
      <point x="440" y="1040" type="curve" smooth="yes"/>
    </contour>
  </outline>
</glyph>
<glyph name="Imacron" format="2">
  <advance width="640"/>
  <unicode hex="012A"/>
  <outline>
    <contour>
      <point x="320" y="40" type="move"/>
      <point x="320" y="760" type="line"/>
    </contour>
    <contour>
      <point x="120" y="1000" type="move"/>
      <point x="520" y="1000" type="line"/>
    </contour>
  </outline>
</glyph>
<glyph name="Iogonek" format="2">
  <advance width="280"/>
  <unicode hex="012E"/>
  <outline>
    <contour>
      <point x="160" y="40" type="move"/>
      <point x="160" y="760" type="line"/>
    </contour>
    <contour>
      <point x="160" y="40" type="move"/>
      <point x="120" y="-120" type="line"/>
    </contour>
  </outline>
</glyph>
<glyph name="Idotaccent" format="2">
  <advance width="320"/>
  <unicode hex="0130"/>
  <outline>
    <contour>
      <point x="160" y="40" type="move"/>
      <point x="160" y="760" type="line"/>
    </contour>
    <contour>
      <point x="160" y="960" type="move" smooth="yes"/>
      <point x="137.923" y="960"/>
      <point x="120" y="977.923"/>
      <point x="120" y="1000" type="curve" smooth="yes"/>
      <point x="120" y="1022.08"/>
      <point x="137.923" y="1040"/>
      <point x="160" y="1040" type="curve" smooth="yes"/>
      <point x="179.067" y="1036.96"/>
      <point x="193.657" y="1020.42"/>
      <point x="193.657" y="1000.5" type="curve" smooth="yes"/>
      <point x="193.657" y="980.583"/>
      <point x="179.067" y="964.043"/>
      <point x="160" y="961" type="curve" smooth="yes"/>
    </contour>
  </outline>
</glyph>
<glyph name="Jcircumflex" format="2">
  <advance width="600"/>
  <unicode hex="0134"/>
  <outline>
    <contour>
      <point x="120" y="40" type="move"/>
      <point x="200" y="40" type="line" smooth="yes"/>
      <point x="288.306" y="40"/>
      <point x="360" y="111.694"/>
      <point x="360" y="200" type="curve" smooth="yes"/>
      <point x="360" y="760" type="line"/>
    </contour>
    <contour>
      <point x="240" y="960" type="move"/>
      <point x="360" y="1080" type="line"/>
      <point x="480" y="960" type="line"/>
    </contour>
  </outline>
</glyph>
<glyph name="Lacute" format="2">
  <advance width="640"/>
  <unicode hex="0139"/>
  <outline>
    <contour>
      <point x="200" y="760" type="move"/>
      <point x="200" y="40" type="line"/>
      <point x="520" y="40" type="line"/>
    </contour>
    <contour>
      <point x="120" y="960" type="move"/>
      <point x="280" y="1080" type="line"/>
    </contour>
  </outline>
</glyph>
<glyph name="lacute" format="2">
  <advance width="400"/>
  <unicode hex="013A"/>
  <outline>
    <contour>
      <point x="200" y="760" type="move"/>
      <point x="200" y="120" type="line" smooth="yes"/>
      <point x="200" y="75.8468"/>
      <point x="235.847" y="40"/>
      <point x="280" y="40" type="curve" smooth="yes"/>
    </contour>
    <contour>
      <point x="120" y="960" type="move"/>
      <point x="280" y="1080" type="line"/>
    </contour>
  </outline>
</glyph>
<glyph name="uni013C" format="2">
  <advance width="520"/>
  <unicode hex="013C"/>
  <outline>
    <contour>
      <point x="320" y="760" type="move"/>
      <point x="320" y="120" type="line" smooth="yes"/>
      <point x="320" y="75.8468"/>
      <point x="355.847" y="40"/>
      <point x="400" y="40" type="curve" smooth="yes"/>
    </contour>
    <contour>
      <point x="160" y="0" type="move"/>
      <point x="120" y="-120" type="line"/>
    </contour>
  </outline>
</glyph>
<glyph name="Lcaron" format="2">
  <advance width="680"/>
  <unicode hex="013D"/>
  <outline>
    <contour>
      <point x="240" y="760" type="move"/>
      <point x="240" y="40" type="line"/>
      <point x="560" y="40" type="line"/>
    </contour>
    <contour>
      <point x="120" y="1080" type="move"/>
      <point x="240" y="960" type="line"/>
      <point x="360" y="1080" type="line"/>
    </contour>
  </outline>
</glyph>
<glyph name="lslash" format="2">
  <advance width="480"/>
  <unicode hex="0142"/>
  <outline>
    <contour>
      <point x="240" y="760" type="move"/>
      <point x="240" y="120" type="line" smooth="yes"/>
      <point x="240" y="75.8468"/>
      <point x="275.847" y="40"/>
      <point x="320" y="40" type="curve" smooth="yes"/>
    </contour>
    <contour>
      <point x="120" y="400" type="move"/>
      <point x="360" y="560" type="line"/>
    </contour>
  </outline>
</glyph>
<glyph name="uni0145" format="2">
  <advance width="640"/>
  <unicode hex="0145"/>
  <outline>
    <contour>
      <point x="120" y="40" type="move"/>
      <point x="120" y="760" type="line"/>
      <point x="520" y="40" type="line"/>
      <point x="520" y="760" type="line"/>
    </contour>
    <contour>
      <point x="320" y="40" type="move"/>
      <point x="280" y="-120" type="line"/>
    </contour>
  </outline>
</glyph>
<glyph name="omacron" format="2">
  <advance width="640"/>
  <unicode hex="014D"/>
  <outline>
    <contour>
      <point x="160" y="360" type="move" smooth="yes"/>
      <point x="160" y="448.306"/>
      <point x="231.694" y="520"/>
      <point x="320" y="520" type="curve" smooth="yes"/>
      <point x="408.306" y="520"/>
      <point x="480" y="448.306"/>
      <point x="480" y="360" type="curve" smooth="yes"/>
      <point x="480" y="200" type="line" smooth="yes"/>
      <point x="480" y="111.694"/>
      <point x="408.306" y="40"/>
      <point x="320" y="40" type="curve" smooth="yes"/>
      <point x="231.694" y="40"/>
      <point x="160" y="111.694"/>
      <point x="160" y="200" type="curve" smooth="yes"/>
      <point x="160" y="359" type="line"/>
    </contour>
    <contour>
      <point x="120" y="760" type="move"/>
      <point x="520" y="760" type="line"/>
    </contour>
  </outline>
</glyph>
<glyph name="racute" format="2">
  <advance width="480"/>
  <unicode hex="0155"/>
  <outline>
    <contour>
      <point x="120" y="40" type="move"/>
      <point x="120" y="520" type="line"/>
      <point x="360" y="520" type="line"/>
      <point x="360" y="440" type="line"/>
    </contour>
    <contour>
      <point x="120" y="720" type="move"/>
      <point x="280" y="840" type="line"/>
    </contour>
  </outline>
</glyph>
<glyph name="Rcaron" format="2">
  <advance width="640"/>
  <unicode hex="0158"/>
  <outline>
    <contour>
      <point x="120" y="40" type="move"/>
      <point x="120" y="760" type="line"/>
      <point x="320" y="760" type="line" smooth="yes"/>
      <point x="430.383" y="760"/>
      <point x="520" y="670.383"/>
      <point x="520" y="560" type="curve" smooth="yes"/>
      <point x="520" y="449.617"/>
      <point x="430.383" y="360"/>
      <point x="320" y="360" type="curve" smooth="yes"/>
      <point x="120" y="360" type="line"/>
    </contour>
    <contour>
      <point x="520" y="40" type="move"/>
      <point x="360" y="360" type="line"/>
    </contour>
    <contour>
      <point x="200" y="1080" type="move"/>
      <point x="320" y="960" type="line"/>
      <point x="440" y="1080" type="line"/>
    </contour>
  </outline>
</glyph>
<glyph name="rcaron" format="2">
  <advance width="480"/>
  <unicode hex="0159"/>
  <outline>
    <contour>
      <point x="120" y="40" type="move"/>
      <point x="120" y="520" type="line"/>
      <point x="360" y="520" type="line"/>
      <point x="360" y="440" type="line"/>
    </contour>
    <contour>
      <point x="120" y="840" type="move"/>
      <point x="240" y="720" type="line"/>
      <point x="360" y="840" type="line"/>
    </contour>
  </outline>
</glyph>
<glyph name="Scedilla" format="2">
  <advance width="640"/>
  <unicode hex="015E"/>
  <outline>
    <contour>
      <point x="480" y="720" type="move" smooth="yes"/>
      <point x="418.513" y="745.619"/>
      <point x="350.722" y="760"/>
      <point x="280" y="760" type="curve" smooth="yes"/>
      <point x="191.694" y="760"/>
      <point x="120" y="688.306"/>
      <point x="120" y="600" type="curve" smooth="yes"/>
      <point x="120" y="537.795"/>
      <point x="155.417" y="483.928"/>
      <point x="207.315" y="457.463" type="curve" smooth="yes"/>
      <point x="207.474" y="457.368"/>
      <point x="432.685" y="342.537"/>
      <point x="432.685" y="342.537" type="curve" smooth="yes"/>
      <point x="484.583" y="316.072"/>
      <point x="520.159" y="262.11"/>
      <point x="520.159" y="199.905" type="curve" smooth="yes"/>
      <point x="520.159" y="111.599"/>
      <point x="448.306" y="40"/>
      <point x="360" y="40" type="curve" smooth="yes"/>
      <point x="270.134" y="40"/>
      <point x="186.814" y="69.8895"/>
      <point x="120" y="120" type="curve" smooth="yes"/>
    </contour>
    <contour>
      <point x="320" y="40" type="move"/>
      <point x="280" y="-120" type="line"/>
    </contour>
  </outline>
</glyph>
<glyph name="scaron" format="2">
  <advance width="560"/>
  <unicode hex="0161"/>
  <outline>
    <contour>
      <point x="400" y="480" type="move" smooth="yes"/>
      <point x="345.426" y="505.515"/>
      <point x="284.178" y="520"/>
      <point x="220" y="520" type="curve" smooth="yes"/>
      <point x="164.808" y="520"/>
      <point x="120" y="475.192"/>
      <point x="120" y="420" type="curve" smooth="yes"/>
      <point x="120" y="380.346"/>
      <point x="143.038" y="346.108"/>
      <point x="176.531" y="329.942" type="curve" smooth="yes"/>
      <point x="176.624" y="329.886"/>
      <point x="383.469" y="230.058"/>
      <point x="383.469" y="230.058" type="curve" smooth="yes"/>
      <point x="416.962" y="213.892"/>
      <point x="440.093" y="179.598"/>
      <point x="440.093" y="139.944" type="curve" smooth="yes"/>
      <point x="440.093" y="84.7524"/>
      <point x="395.192" y="40"/>
      <point x="340" y="40" type="curve" smooth="yes"/>
      <point x="262.693" y="40"/>
      <point x="188.367" y="54.2895"/>
      <point x="120" y="80" type="curve" smooth="yes"/>
    </contour>
    <contour>
      <point x="160" y="840" type="move"/>
      <point x="280" y="720" type="line"/>
      <point x="400" y="840" type="line"/>
    </contour>
  </outline>
</glyph>
<glyph name="Tcaron" format="2">
  <advance width="640"/>
  <unicode hex="0164"/>
  <outline>
    <contour>
      <point x="120" y="760" type="move"/>
      <point x="520" y="760" type="line"/>
    </contour>
    <contour>
      <point x="320" y="760" type="move"/>
      <point x="320" y="40" type="line"/>
    </contour>
    <contour>
      <point x="200" y="1080" type="move"/>
      <point x="320" y="960" type="line"/>
      <point x="440" y="1080" type="line"/>
    </contour>
  </outline>
</glyph>
<glyph name="Utilde" format="2">
  <advance width="640"/>
  <unicode hex="0168"/>
  <outline>
    <contour>
      <point x="120" y="760" type="move"/>
      <point x="120" y="240" type="line" smooth="yes"/>
      <point x="120" y="129.617"/>
      <point x="209.617" y="40"/>
      <point x="320" y="40" type="curve" smooth="yes"/>
      <point x="430.383" y="40"/>
      <point x="520" y="129.617"/>
      <point x="520" y="240" type="curve" smooth="yes"/>
      <point x="520" y="760" type="line"/>
    </contour>
    <contour>
      <point x="160" y="1040" type="move"/>
      <point x="192" y="1064" type="line" smooth="yes"/>
      <point x="205.363" y="1074.02"/>
      <point x="221.96" y="1079.96"/>
      <point x="239.933" y="1079.96" type="curve" smooth="yes"/>
      <point x="257.906" y="1079.96"/>
      <point x="274.637" y="1074.02"/>
      <point x="288" y="1064" type="curve"/>
      <point x="287.866" y="1064"/>
      <point x="352" y="1016"/>
      <point x="352" y="1016" type="curve" smooth="yes"/>
      <point x="365.363" y="1005.98"/>
      <point x="381.96" y="1000.04"/>
      <point x="399.933" y="1000.04" type="curve" smooth="yes"/>
      <point x="417.906" y="1000.04"/>
      <point x="434.637" y="1005.98"/>
      <point x="448" y="1016" type="curve"/>
      <point x="447.866" y="1016"/>
      <point x="480" y="1040"/>
      <point x="480" y="1040" type="curve" smooth="yes"/>
    </contour>
  </outline>
</glyph>
<glyph name="umacron" format="2">
  <advance width="640"/>
  <unicode hex="016B"/>
  <outline>
    <contour>
      <point x="160" y="520" type="move"/>
      <point x="160" y="160" type="line" smooth="yes"/>
      <point x="160" y="93.7702"/>
      <point x="213.77" y="40"/>
      <point x="280" y="40" type="curve" smooth="yes"/>
      <point x="480" y="40" type="line"/>
      <point x="480" y="520" type="line"/>
    </contour>
    <contour>
      <point x="120" y="760" type="move"/>
      <point x="520" y="760" type="line"/>
    </contour>
  </outline>
</glyph>
<glyph name="Ubreve" format="2">
  <advance width="640"/>
  <unicode hex="016C"/>
  <outline>
    <contour>
      <point x="120" y="760" type="move"/>
      <point x="120" y="240" type="line" smooth="yes"/>
      <point x="120" y="129.617"/>
      <point x="209.617" y="40"/>
      <point x="320" y="40" type="curve" smooth="yes"/>
      <point x="430.383" y="40"/>
      <point x="520" y="129.617"/>
      <point x="520" y="240" type="curve" smooth="yes"/>
      <point x="520" y="760" type="line"/>
    </contour>
    <contour>
      <point x="200" y="1080" type="move" smooth="yes"/>
      <point x="200" y="1013.77"/>
      <point x="253.77" y="960"/>
      <point x="320" y="960" type="curve" smooth="yes"/>
      <point x="386.23" y="960"/>
      <point x="440" y="1013.77"/>
      <point x="440" y="1080" type="curve" smooth="yes"/>
    </contour>
  </outline>
</glyph>
<glyph name="Uring" format="2">
  <advance width="640"/>
  <unicode hex="016E"/>
  <outline>
    <contour>
      <point x="120" y="760" type="move"/>
      <point x="120" y="240" type="line" smooth="yes"/>
      <point x="120" y="129.617"/>
      <point x="209.617" y="40"/>
      <point x="320" y="40" type="curve" smooth="yes"/>
      <point x="430.383" y="40"/>
      <point x="520" y="129.617"/>
      <point x="520" y="240" type="curve" smooth="yes"/>
      <point x="520" y="760" type="line"/>
    </contour>
    <contour>
      <point x="320" y="880" type="move" smooth="yes"/>
      <point x="264.808" y="880"/>
      <point x="220" y="924.808"/>
      <point x="220" y="980" type="curve" smooth="yes"/>
      <point x="220" y="1035.19"/>
      <point x="264.808" y="1080"/>
      <point x="320" y="1080" type="curve"/>
      <point x="370.461" y="1074.93"/>
      <point x="409.911" y="1032.29"/>
      <point x="409.911" y="980.504" type="curve" smooth="yes"/>
      <point x="409.911" y="928.717"/>
      <point x="370.461" y="886.065"/>
      <point x="320" y="881" type="curve" smooth="yes"/>
    </contour>
  </outline>
</glyph>
<glyph name="Uogonek" format="2">
  <advance width="640"/>
  <unicode hex="0172"/>
  <outline>
    <contour>
      <point x="120" y="760" type="move"/>
      <point x="120" y="240" type="line" smooth="yes"/>
      <point x="120" y="129.617"/>
      <point x="209.617" y="40"/>
      <point x="320" y="40" type="curve" smooth="yes"/>
      <point x="430.383" y="40"/>
      <point x="520" y="129.617"/>
      <point x="520" y="240" type="curve" smooth="yes"/>
      <point x="520" y="760" type="line"/>
    </contour>
    <contour>
      <point x="320" y="40" type="move"/>
      <point x="280" y="-120" type="line"/>
    </contour>
  </outline>
</glyph>
<glyph name="Zacute" format="2">
  <advance width="640"/>
  <unicode hex="0179"/>
  <outline>
    <contour>
      <point x="120" y="760" type="move"/>
      <point x="520" y="760" type="line"/>
      <point x="120" y="40" type="line"/>
      <point x="520" y="40" type="line"/>
    </contour>
    <contour>
      <point x="240" y="960" type="move"/>
      <point x="400" y="1080" type="line"/>
    </contour>
  </outline>
</glyph>
<glyph name="Zdotaccent" format="2">
  <advance width="640"/>
  <unicode hex="017B"/>
  <outline>
    <contour>
      <point x="120" y="760" type="move"/>
      <point x="520" y="760" type="line"/>
      <point x="120" y="40" type="line"/>
      <point x="520" y="40" type="line"/>
    </contour>
    <contour>
      <point x="320" y="960" type="move" smooth="yes"/>
      <point x="297.923" y="960"/>
      <point x="280" y="977.923"/>
      <point x="280" y="1000" type="curve" smooth="yes"/>
      <point x="280" y="1022.08"/>
      <point x="297.923" y="1040"/>
      <point x="320" y="1040" type="curve" smooth="yes"/>
      <point x="339.067" y="1036.96"/>
      <point x="353.657" y="1020.42"/>
      <point x="353.657" y="1000.5" type="curve" smooth="yes"/>
      <point x="353.657" y="980.583"/>
      <point x="339.067" y="964.043"/>
      <point x="320" y="961" type="curve" smooth="yes"/>
    </contour>
  </outline>
</glyph>
<glyph name="uni023E" format="2">
  <advance width="640"/>
  <unicode hex="023E"/>
  <outline>
    <contour>
      <point x="120" y="760" type="move"/>
      <point x="520" y="760" type="line"/>
    </contour>
    <contour>
      <point x="320" y="760" type="move"/>
      <point x="320" y="40" type="line"/>
    </contour>
    <contour>
      <point x="160" y="280" type="move"/>
      <point x="480" y="520" type="line"/>
    </contour>
  </outline>
</glyph>
<glyph name="Gamma" format="2">
  <advance width="600"/>
  <unicode hex="0393"/>
  <outline>
    <contour>
      <point x="120" y="40" type="move"/>
      <point x="120" y="760" type="line"/>
      <point x="480" y="760" type="line"/>
    </contour>
  </outline>
</glyph>
<glyph name="Epsilon" format="2">
  <advance width="600"/>
  <unicode hex="0395"/>
  <outline>
    <contour>
      <point x="480" y="40" type="move"/>
      <point x="120" y="40" type="line"/>
      <point x="120" y="760" type="line"/>
      <point x="480" y="760" type="line"/>
    </contour>
    <contour>
      <point x="120" y="400" type="move"/>
      <point x="400" y="400" type="line"/>
    </contour>
  </outline>
</glyph>
<glyph name="Eta" format="2">
  <advance width="640"/>
  <unicode hex="0397"/>
  <outline>
    <contour>
      <point x="120" y="40" type="move"/>
      <point x="120" y="760" type="line"/>
    </contour>
    <contour>
      <point x="520" y="40" type="move"/>
      <point x="520" y="760" type="line"/>
    </contour>
    <contour>
      <point x="120" y="400" type="move"/>
      <point x="520" y="400" type="line"/>
    </contour>
  </outline>
</glyph>
<glyph name="Kappa" format="2">
  <advance width="600"/>
  <unicode hex="039A"/>
  <outline>
    <contour>
      <point x="120" y="40" type="move"/>
      <point x="120" y="760" type="line"/>
    </contour>
    <contour>
      <point x="480" y="760" type="move"/>
      <point x="120" y="334.655" type="line"/>
    </contour>
    <contour>
      <point x="480" y="40" type="move"/>
      <point x="251.016" y="480" type="line"/>
    </contour>
  </outline>
</glyph>
<glyph name="Lambda" format="2">
  <advance width="720"/>
  <unicode hex="039B"/>
  <outline>
    <contour>
      <point x="120" y="40" type="move"/>
      <point x="360" y="760" type="line"/>
      <point x="600" y="40" type="line"/>
    </contour>
  </outline>
</glyph>
<glyph name="Pi" format="2">
  <advance width="640"/>
  <unicode hex="03A0"/>
  <outline>
    <contour>
      <point x="120" y="40" type="move"/>
      <point x="120" y="760" type="line"/>
      <point x="520" y="760" type="line"/>
      <point x="520" y="40" type="line"/>
    </contour>
  </outline>
</glyph>
<glyph name="Rho" format="2">
  <advance width="642"/>
  <unicode hex="03A1"/>
  <outline>
    <contour>
      <point x="120" y="40" type="move"/>
      <point x="120" y="760" type="line"/>
      <point x="340" y="760" type="line" smooth="yes"/>
      <point x="440.449" y="760"/>
      <point x="522" y="678.449"/>
      <point x="522" y="578" type="curve" smooth="yes"/>
      <point x="522" y="477.551"/>
      <point x="440.449" y="396"/>
      <point x="340" y="396" type="curve" smooth="yes"/>
      <point x="160" y="396" type="line"/>
    </contour>
  </outline>
</glyph>
<glyph name="Sigma" format="2">
  <advance width="640"/>
  <unicode hex="03A3"/>
  <outline>
    <contour>
      <point x="520" y="40" type="move"/>
      <point x="120" y="40" type="line"/>
      <point x="280" y="400" type="line"/>
      <point x="120" y="760" type="line"/>
      <point x="520" y="760" type="line"/>
    </contour>
  </outline>
</glyph>
<glyph name="Tau" format="2">
  <advance width="640"/>
  <unicode hex="03A4"/>
  <outline>
    <contour>
      <point x="120" y="760" type="move"/>
      <point x="520" y="760" type="line"/>
    </contour>
    <contour>
      <point x="320" y="760" type="move"/>
      <point x="320" y="40" type="line"/>
    </contour>
  </outline>
</glyph>
<glyph name="Phi" format="2">
  <advance width="800"/>
  <unicode hex="03A6"/>
  <outline>
    <contour>
      <point x="240" y="40" type="move"/>
      <point x="400" y="40" type="line"/>
      <point x="400" y="760" type="line"/>
      <point x="560" y="760" type="line"/>
    </contour>
    <contour>
      <point x="360" y="160" type="move" smooth="yes"/>
      <point x="227.54" y="160"/>
      <point x="120" y="267.54"/>
      <point x="120" y="400" type="curve" smooth="yes"/>
      <point x="120" y="532.46"/>
      <point x="227.54" y="640"/>
      <point x="360" y="640" type="curve" smooth="yes"/>
      <point x="440" y="640" type="line" smooth="yes"/>
      <point x="572.46" y="640"/>
      <point x="680" y="532.46"/>
      <point x="680" y="400" type="curve" smooth="yes"/>
      <point x="680" y="267.54"/>
      <point x="572.46" y="160"/>
      <point x="440" y="160" type="curve" smooth="yes"/>
      <point x="361" y="160" type="line"/>
    </contour>
  </outline>
</glyph>
<glyph name="Chi" format="2">
  <advance width="640"/>
  <unicode hex="03A7"/>
  <outline>
    <contour>
      <point x="120" y="40" type="move"/>
      <point x="520" y="760" type="line"/>
    </contour>
    <contour>
      <point x="120" y="760" type="move"/>
      <point x="520" y="40" type="line"/>
    </contour>
  </outline>
</glyph>
<glyph name="Psi" format="2">
  <advance width="720"/>
  <unicode hex="03A8"/>
  <outline>
    <contour>
      <point x="360" y="40" type="move"/>
      <point x="360" y="760" type="line"/>
    </contour>
    <contour>
      <point x="120" y="760" type="move"/>
      <point x="120" y="480" type="line" smooth="yes"/>
      <point x="120" y="347.54"/>
      <point x="227.54" y="240"/>
      <point x="360" y="240" type="curve" smooth="yes"/>
      <point x="492.46" y="240"/>
      <point x="600" y="347.54"/>
      <point x="600" y="480" type="curve" smooth="yes"/>
      <point x="600" y="760" type="line"/>
    </contour>
  </outline>
</glyph>
<glyph name="eta" format="2">
  <advance width="640"/>
  <unicode hex="03B7"/>
  <outline>
    <contour>
      <point x="120" y="520" type="move" smooth="yes"/>
      <point x="164.153" y="520"/>
      <point x="200" y="484.153"/>
      <point x="200" y="440" type="curve" smooth="yes"/>
      <point x="200" y="40" type="line"/>
    </contour>
    <contour>
      <point x="200" y="360" type="move" smooth="yes"/>
      <point x="200" y="448.306"/>
      <point x="271.694" y="520"/>
      <point x="360" y="520" type="curve" smooth="yes"/>
      <point x="448.306" y="520"/>
      <point x="520" y="448.306"/>
      <point x="520" y="360" type="curve" smooth="yes"/>
      <point x="520" y="-200" type="line"/>
    </contour>
  </outline>
</glyph>
<glyph name="xi" format="2">
  <advance width="640"/>
  <unicode hex="03BE"/>
  <outline>
    <contour>
      <point x="120" y="760" type="move" smooth="yes"/>
      <point x="120" y="715.847"/>
      <point x="155.847" y="680"/>
      <point x="200" y="680" type="curve" smooth="yes"/>
      <point x="440" y="680" type="line"/>
    </contour>
    <contour>
      <point x="320" y="680" type="move" smooth="yes"/>
      <point x="253.77" y="680"/>
      <point x="200" y="626.23"/>
      <point x="200" y="560" type="curve" smooth="yes"/>
      <point x="200" y="493.77"/>
      <point x="253.77" y="440"/>
      <point x="320" y="440" type="curve" smooth="yes"/>
      <point x="440" y="440" type="line"/>
    </contour>
    <contour>
      <point x="320" y="440" type="move" smooth="yes"/>
      <point x="209.617" y="440"/>
      <point x="120" y="350.383"/>
      <point x="120" y="240" type="curve" smooth="yes"/>
      <point x="120" y="129.617"/>
      <point x="209.617" y="40"/>
      <point x="320" y="40" type="curve" smooth="yes"/>
      <point x="440" y="40" type="line" smooth="yes"/>
      <point x="484.153" y="40"/>
      <point x="520" y="4.1532"/>
      <point x="520" y="-40" type="curve" smooth="yes"/>
      <point x="520" y="-120" type="line" smooth="yes"/>
      <point x="520" y="-164.153"/>
      <point x="484.153" y="-200"/>
      <point x="440" y="-200" type="curve" smooth="yes"/>
    </contour>
  </outline>
</glyph>
<glyph name="pi" format="2">
  <advance width="720"/>
  <unicode hex="03C0"/>
  <outline>
    <contour>
      <point x="160" y="40" type="move" smooth="yes"/>
      <point x="204.153" y="40"/>
      <point x="240" y="75.8468"/>
      <point x="240" y="120" type="curve" smooth="yes"/>
      <point x="240" y="520" type="line"/>
    </contour>
    <contour>
      <point x="120" y="520" type="move"/>
      <point x="600" y="520" type="line"/>
    </contour>
    <contour>
      <point x="480" y="520" type="move"/>
      <point x="480" y="120" type="line" smooth="yes"/>
      <point x="480" y="75.8468"/>
      <point x="515.847" y="40"/>
      <point x="560" y="40" type="curve" smooth="yes"/>
    </contour>
  </outline>
</glyph>
<glyph name="rho" format="2">
  <advance width="560"/>
  <unicode hex="03C1"/>
  <outline>
    <contour>
      <point x="120" y="200" type="move" smooth="yes"/>
      <point x="120" y="111.694"/>
      <point x="191.694" y="40"/>
      <point x="280" y="40" type="curve" smooth="yes"/>
      <point x="368.306" y="40"/>
      <point x="440" y="111.694"/>
      <point x="440" y="200" type="curve" smooth="yes"/>
      <point x="440" y="360" type="line" smooth="yes"/>
      <point x="440" y="448.306"/>
      <point x="368.306" y="520"/>
      <point x="280" y="520" type="curve" smooth="yes"/>
      <point x="191.694" y="520"/>
      <point x="120" y="448.306"/>
      <point x="120" y="360" type="curve" smooth="yes"/>
      <point x="120" y="200" type="line" smooth="yes"/>
      <point x="120" y="164.054"/>
      <point x="131.956" y="130.726"/>
      <point x="152" y="104" type="curve"/>
      <point x="151.924" y="104.134"/>
      <point x="200" y="40"/>
      <point x="200" y="40" type="curve" smooth="yes"/>
      <point x="225.055" y="6.593"/>
      <point x="239.905" y="-34.899"/>
      <point x="239.905" y="-79.832" type="curve" smooth="yes"/>
      <point x="239.905" y="-124.765"/>
      <point x="225.055" y="-166.593"/>
      <point x="200" y="-200" type="curve" smooth="yes"/>
    </contour>
  </outline>
</glyph>
<glyph name="tau" format="2">
  <advance width="680"/>
  <unicode hex="03C4"/>
  <outline>
    <contour>
      <point x="120" y="520" type="move"/>
      <point x="560" y="520" type="line"/>
    </contour>
    <contour>
      <point x="320" y="520" type="move"/>
      <point x="320" y="160" type="line" smooth="yes"/>
      <point x="320" y="93.7702"/>
      <point x="373.77" y="40"/>
      <point x="440" y="40" type="curve" smooth="yes"/>
    </contour>
  </outline>
</glyph>
<glyph name="phi" format="2">
  <advance width="720"/>
  <unicode hex="03C6"/>
  <outline>
    <contour>
      <point x="120" y="520" type="move"/>
      <point x="120" y="280" type="line" smooth="yes"/>
      <point x="120" y="147.54"/>
      <point x="227.54" y="40"/>
      <point x="360" y="40" type="curve" smooth="yes"/>
      <point x="492.46" y="40"/>
      <point x="600" y="147.54"/>
      <point x="600" y="280" type="curve" smooth="yes"/>
      <point x="600" y="400" type="line" smooth="yes"/>
      <point x="600" y="466.23"/>
      <point x="546.23" y="520"/>
      <point x="480" y="520" type="curve" smooth="yes"/>
      <point x="413.77" y="520"/>
      <point x="360" y="466.23"/>
      <point x="360" y="400" type="curve" smooth="yes"/>
      <point x="360" y="-200" type="line"/>
    </contour>
  </outline>
</glyph>
<glyph name="peseta" format="2">
  <advance width="880"/>
  <unicode hex="20A7"/>
  <outline>
    <contour>
      <point x="120" y="-120" type="move"/>
      <point x="120" y="600" type="line"/>
      <point x="280" y="600" type="line" smooth="yes"/>
      <point x="390.383" y="600"/>
      <point x="480" y="510.383"/>
      <point x="480" y="400" type="curve" smooth="yes"/>
      <point x="480" y="289.617"/>
      <point x="390.383" y="200"/>
      <point x="280" y="200" type="curve" smooth="yes"/>
      <point x="120" y="200" type="line"/>
    </contour>
    <contour>
      <point x="560" y="200" type="move"/>
      <point x="760" y="200" type="line"/>
    </contour>
    <contour>
      <point x="640" y="-120" type="move"/>
      <point x="640" y="360" type="line"/>
    </contour>
  </outline>
</glyph>
<glyph name="uni2104" format="2">
  <advance width="640"/>
  <unicode hex="2104"/>
  <outline>
    <contour>
      <point x="360" y="240" type="move"/>
      <point x="200" y="240" type="line" smooth="yes"/>
      <point x="155.847" y="240"/>
      <point x="120" y="275.847"/>
      <point x="120" y="320" type="curve" smooth="yes"/>
      <point x="120" y="560" type="line" smooth="yes"/>
      <point x="120" y="604.153"/>
      <point x="155.847" y="640"/>
      <point x="200" y="640" type="curve" smooth="yes"/>
      <point x="360" y="640" type="line"/>
    </contour>
    <contour>
      <point x="520" y="40" type="move"/>
      <point x="280" y="40" type="line"/>
      <point x="280" y="440" type="line"/>
    </contour>
  </outline>
</glyph>
<glyph name="uni21B7" format="2">
  <advance width="880"/>
  <unicode hex="21B7"/>
  <outline>
    <contour>
      <point x="120" y="40" type="move" smooth="yes"/>
      <point x="120" y="194.536"/>
      <point x="245.464" y="320"/>
      <point x="400" y="320" type="curve" smooth="yes"/>
      <point x="554.536" y="320"/>
      <point x="680" y="194.536"/>
      <point x="680" y="40" type="curve" smooth="yes"/>
    </contour>
    <contour>
      <point x="760" y="280" type="move"/>
      <point x="680" y="40" type="line"/>
      <point x="457.289" y="160" type="line"/>
    </contour>
  </outline>
</glyph>
<glyph name="emptyset" format="2">
  <advance width="720"/>
  <unicode hex="2205"/>
  <outline>
    <contour>
      <point x="360" y="160" type="move" smooth="yes"/>
      <point x="227.54" y="160"/>
      <point x="120" y="267.54"/>
      <point x="120" y="400" type="curve" smooth="yes"/>
      <point x="120" y="532.46"/>
      <point x="227.54" y="640"/>
      <point x="360" y="640" type="curve"/>
      <point x="485.16" y="631.908"/>
      <point x="584.312" y="527.695"/>
      <point x="584.312" y="400.506" type="curve" smooth="yes"/>
      <point x="584.312" y="273.316"/>
      <point x="485.16" y="169.092"/>
      <point x="360" y="161" type="curve" smooth="yes"/>
    </contour>
    <contour>
      <point x="240" y="40" type="move"/>
      <point x="480" y="760" type="line"/>
    </contour>
  </outline>
</glyph>
<glyph name="radical" format="2">
  <advance width="1000"/>
  <unicode hex="221A"/>
  <outline>
    <contour>
      <point x="120" y="520" type="move"/>
      <point x="280" y="40" type="line"/>
      <point x="600" y="1080" type="line"/>
      <point x="880" y="1080" type="line"/>
    </contour>
  </outline>
</glyph>
<glyph name="infinity" format="2">
  <advance width="800"/>
  <unicode hex="221E"/>
  <outline>
    <contour>
      <point x="400" y="400" type="move" smooth="yes"/>
      <point x="400" y="477.268"/>
      <point x="462.732" y="540"/>
      <point x="540" y="540" type="curve" smooth="yes"/>
      <point x="617.268" y="540"/>
      <point x="680" y="477.268"/>
      <point x="680" y="400" type="curve" smooth="yes"/>
      <point x="680" y="322.732"/>
      <point x="617.268" y="260"/>
      <point x="540" y="260" type="curve" smooth="yes"/>
      <point x="462.732" y="260"/>
      <point x="400" y="322.732"/>
      <point x="400" y="400" type="curve" smooth="yes"/>
      <point x="400" y="477.268"/>
      <point x="337.268" y="540"/>
      <point x="260" y="540" type="curve" smooth="yes"/>
      <point x="182.732" y="540"/>
      <point x="120" y="477.268"/>
      <point x="120" y="400" type="curve"/>
      <point x="126.074" y="328.32"/>
      <point x="186.255" y="271.957"/>
      <point x="259.496" y="271.957" type="curve" smooth="yes"/>
      <point x="332.736" y="271.957"/>
      <point x="392.926" y="328.32"/>
      <point x="399" y="400" type="curve" smooth="yes"/>
    </contour>
  </outline>
</glyph>
<glyph name="integral" format="2">
  <advance width="560"/>
  <unicode hex="222B"/>
  <outline>
    <contour>
      <point x="120" y="-200" type="move"/>
      <point x="160" y="-200" type="line" smooth="yes"/>
      <point x="226.23" y="-200"/>
      <point x="280" y="-146.23"/>
      <point x="280" y="-80" type="curve" smooth="yes"/>
      <point x="280" y="960" type="line" smooth="yes"/>
      <point x="280" y="1026.23"/>
      <point x="333.77" y="1080"/>
      <point x="400" y="1080" type="curve" smooth="yes"/>
      <point x="440" y="1080" type="line"/>
    </contour>
  </outline>
</glyph>
<glyph name="approxequal" format="2">
  <advance width="560"/>
  <unicode hex="2248"/>
  <outline>
    <contour>
      <point x="120" y="160" type="move"/>
      <point x="152" y="184" type="line" smooth="yes"/>
      <point x="165.363" y="194.022"/>
      <point x="181.96" y="199.962"/>
      <point x="199.933" y="199.962" type="curve" smooth="yes"/>
      <point x="217.906" y="199.962"/>
      <point x="234.637" y="194.022"/>
      <point x="248" y="184" type="curve"/>
      <point x="247.866" y="184"/>
      <point x="312" y="136"/>
      <point x="312" y="136" type="curve" smooth="yes"/>
      <point x="325.363" y="125.978"/>
      <point x="341.96" y="120.038"/>
      <point x="359.933" y="120.038" type="curve" smooth="yes"/>
      <point x="377.906" y="120.038"/>
      <point x="394.637" y="125.978"/>
      <point x="408" y="136" type="curve"/>
      <point x="407.866" y="136"/>
      <point x="440" y="160"/>
      <point x="440" y="160" type="curve" smooth="yes"/>
    </contour>
    <contour>
      <point x="120" y="400" type="move"/>
      <point x="152" y="424" type="line" smooth="yes"/>
      <point x="165.363" y="434.022"/>
      <point x="181.96" y="439.962"/>
      <point x="199.933" y="439.962" type="curve" smooth="yes"/>
      <point x="217.906" y="439.962"/>
      <point x="234.637" y="434.022"/>
      <point x="248" y="424" type="curve"/>
      <point x="247.866" y="424"/>
      <point x="312" y="376"/>
      <point x="312" y="376" type="curve" smooth="yes"/>
      <point x="325.363" y="365.978"/>
      <point x="341.96" y="360.038"/>
      <point x="359.933" y="360.038" type="curve" smooth="yes"/>
      <point x="377.906" y="360.038"/>
      <point x="394.637" y="365.978"/>
      <point x="408" y="376" type="curve"/>
      <point x="407.866" y="376"/>
      <point x="440" y="400"/>
      <point x="440" y="400" type="curve" smooth="yes"/>
    </contour>
  </outline>
</glyph>
<glyph name="uni2259" format="2">
  <advance width="560"/>
  <unicode hex="2259"/>
  <outline>
    <contour>
      <point x="120" y="120" type="move"/>
      <point x="440" y="120" type="line"/>
    </contour>
    <contour>
      <point x="120" y="360" type="move"/>
      <point x="440" y="360" type="line"/>
    </contour>
    <contour>
      <point x="120" y="600" type="move"/>
      <point x="280" y="760" type="line"/>
      <point x="440" y="600" type="line"/>
    </contour>
  </outline>
</glyph>
<glyph name="notequal" format="2">
  <advance width="560"/>
  <unicode hex="2260"/>
  <outline>
    <contour>
      <point x="120" y="160" type="move"/>
      <point x="440" y="160" type="line"/>
    </contour>
    <contour>
      <point x="120" y="400" type="move"/>
      <point x="440" y="400" type="line"/>
    </contour>
    <contour>
      <point x="160" y="40" type="move"/>
      <point x="360" y="520" type="line"/>
    </contour>
  </outline>
</glyph>
<glyph name="greaterequal" format="2">
  <advance width="560"/>
  <unicode hex="2265"/>
  <outline>
    <contour>
      <point x="120" y="80" type="move"/>
      <point x="440" y="80" type="line"/>
    </contour>
    <contour>
      <point x="120" y="280" type="move"/>
      <point x="440" y="400" type="line"/>
      <point x="120" y="520" type="line"/>
    </contour>
  </outline>
</glyph>
<glyph name="uni22B3" format="2">
  <advance width="720"/>
  <unicode hex="22B3"/>
  <outline>
    <contour>
      <point x="120" y="520" type="move"/>
      <point x="600" y="280" type="line"/>
      <point x="120" y="40" type="line"/>
      <point x="120" y="519" type="line"/>
    </contour>
  </outline>
</glyph>
